<svg width="1024" height="1024" version="1.1" xmlns="http://www.w3.org/2000/svg" desc="Created with imagetracer.js version 1.2.6" ><path fill="rgb(70,177,111)" stroke="rgb(70,177,111)" stroke-width="1" opacity="1" d="M 0 0 L 1023.5 0 L 1024 0.5 L 1024 271 L 1009.5 271 L 1008.5 272 L 976 272 L 976 303.5 L 976.5 304 L 991 304 L 991 319 L 977.5 319 L 975 321.5 L 975 352 L 960 352 L 960 320 L 944 320 L 944 336 L 928 336 L 928 320 L 912 320 L 912 304 L 896 304 L 896 272 L 880 272 L 880 288 L 864 288 L 864 272 L 880 272 L 880 256 L 832 256 L 832 224 L 816 224 L 816 240 L 784 240 L 784 224 L 800 224 L 800 208 L 768 208 L 768 224 L 752 224 L 752 192 L 720 192 L 720 208 L 736 208 L 736 224 L 704 224 L 704 192 L 656.5 192 L 656 191.5 L 656 176 L 624 176 L 624 192 L 592 192 L 592 160 L 576 160 L 576 176 L 560 176 L 560 192 L 544 192 L 544 160 L 496 160 L 496 176 L 512 176 L 512 192 L 496 192 L 496 176 L 480 176 L 480 160 L 464 160 L 464 192 L 432 192 L 432 176 L 416 176 L 416 192 L 400 192 L 400 176 L 368 176 L 368 208 L 352 208 L 352 224 L 320 224 L 320 208 L 304 208 L 304 176 L 288 176 L 288 208 L 256 208 L 256 224 L 240 224 L 240 240 L 224 240 L 224 208 L 208 208 L 208 192 L 176 192 L 176 224 L 208 224 L 208 256 L 192 256 L 192 272 L 160 272 L 160 288 L 144 288 L 144 304 L 160 304 L 160 320 L 144 320 L 144 304 L 128 304 L 128 320 L 112 320 L 112 304 L 81 304 L 81 273.5 L 79.5 272 L 64 272 L 64 256.5 L 62.5 255 L 33 255 L 33 225.5 L 30.5 223 L 17 223 L 17 209.5 L 14.5 207 L 0.5 207 L 0 206.5 L 0 0 Z M 544 96 L 544 128 L 560 128 L 560 144 L 592 144 L 592 128 L 608 128 L 608 112 L 561 112 L 560 112 L 560 96 L 544 96 Z M 384 112 L 384 128 L 400 128 L 400 112 L 384 112 Z M 416 112 L 416 128 L 400 128 L 400 144 L 416 144 L 416 160 L 432 160 L 432 128 L 464 128 L 464 112 L 416 112 Z M 480 112 L 480 128 L 496 128 L 496 112 L 480 112 Z M 512 112 L 512 128 L 528 128 L 528 112 L 512 112 Z M 304 128 L 304 144 L 320 144 L 320 160 L 336 160 L 336 144 L 368 144 L 368 129 L 368 128 L 304 128 Z M 496 128 L 496 144 L 512 144 L 512 128 L 496 128 Z M 608 128 L 608 160 L 640 160 L 640 144 L 624 144 L 624 128 L 608 128 Z M 656 128 L 656 144 L 672 144 L 672 128 L 656 128 Z M 272 144 L 272 176 L 288 176 L 288 144 L 272 144 Z M 672 144 L 672 160 L 688 160 L 688 144 L 672 144 Z M 704 144 L 704 176 L 720 176 L 720 144 L 704 144 Z M 736 144 L 736 160 L 768 160 L 768 144 L 736 144 Z M 784 144 L 784 176 L 800 176 L 800 144 L 784 144 Z M 240 160 L 240 176 L 256 176 L 256 160 L 240 160 Z M 256 176 L 256 192 L 272 192 L 272 176 L 256 176 Z M 832 176 L 832 192 L 848 192 L 848 176 L 832 176 Z M 864 176 L 864 208 L 880 208 L 880 176 L 864 176 Z M 320 192 L 320 208 L 336 208 L 336 192 L 320 192 Z M 816 192 L 816 208 L 832 208 L 832 192 L 816 192 Z M 896 208 L 896 256 L 928 256 L 928 257 L 928 320 L 944 320 L 944 288 L 960 288 L 960 272 L 944 272 L 944 240 L 912 240 L 912 208 L 896 208 Z M 96 240 L 96 288 L 112 288 L 112 240 L 96 240 Z M 960 256 L 960 272 L 976 272 L 976 256 L 960 256 Z " /><path fill="rgb(70,177,111)" stroke="rgb(70,177,111)" stroke-width="1" opacity="1" d="M 992 288 L 1007 288 L 1007 303 L 992 303 L 992 288 Z " /><path fill="rgb(70,177,111)" stroke="rgb(70,177,111)" stroke-width="1" opacity="1" d="M 97 336 L 111.5 336 L 112 336.5 L 112 384 L 97.5 384 L 97 383.5 L 97 336 Z " /><path fill="rgb(70,177,111)" stroke="rgb(70,177,111)" stroke-width="1" opacity="1" d="M 81 401 L 96 401 L 96 416 L 81 416 L 81 401 Z " /><path fill="rgb(70,177,111)" stroke="rgb(70,177,111)" stroke-width="1" opacity="1" d="M 0 736 L 16 736 L 16 784 L 0 784 L 0 736 Z " /><path fill="rgb(70,177,111)" stroke="rgb(70,177,111)" stroke-width="1" opacity="1" d="M 16 816 L 31.5 816 L 32 816.5 L 32 895.5 L 32.5 896 L 48 896 L 48 943.5 L 48.5 944 L 63.5 944 L 64 944.5 L 64 1008 L 16 1008 L 16 992 L 48 992 L 48 960 L 32 960 L 32 928 L 16.5 928 L 16 927.5 L 16 816 Z " /><path fill="rgb(96,102,115)" stroke="rgb(96,102,115)" stroke-width="1" opacity="1" d="M 0.5 207 L 14.5 207 L 17 209.5 L 17 223 L 30.5 223 L 33 225.5 L 33 255 L 62.5 255 L 64 256.5 L 62.5 256 L 32 256 L 32 225.5 L 30.5 224 L 16 224 L 16 209.5 L 14.5 208 L 0.5 208 L 0.5 207 Z " /><path fill="rgb(96,102,115)" stroke="rgb(96,102,115)" stroke-width="1" opacity="1" d="M 1009.5 271 L 1024 271.5 L 1009.5 272 L 1008 273.5 L 1008 304 L 993.5 304 L 992 305.5 L 992 320 L 977.5 320 L 976 321.5 L 976 368 L 945.5 368 L 944 369.5 L 944 432 L 928 431.5 L 943 431 L 943 368.5 L 944.5 367 L 975 367 L 975 321.5 L 977.5 319 L 991 319 L 991 304.5 L 992.5 303 L 1007 303 L 1007 273.5 L 1009.5 271 Z " /><path fill="rgb(96,102,115)" stroke="rgb(96,102,115)" stroke-width="1" opacity="1" d="M 79.5 272 L 81 273.5 L 81 335 L 94.5 335 L 97 336 L 97 398.5 L 96 401 L 81.5 401 L 81 401.5 L 81 463 L 95.5 463 L 97 464.5 L 97 495 L 111.5 495 L 111.5 496 L 96 496 L 96 465.5 L 94.5 464 L 80 464 L 80 400.5 L 80.5 400 L 94.5 400 L 96 398.5 L 96 337.5 L 94.5 336 L 80 336 L 80 273.5 L 79.5 272 Z " /><path fill="rgb(96,102,115)" stroke="rgb(96,102,115)" stroke-width="1" opacity="1" d="M 752 432 L 768 432 L 768 448 L 752 448 L 752 464 L 720 464 L 720 480 L 704 480 L 704 512 L 688.5 512 L 688 512.5 L 688 560 L 672.5 560 L 672 560.5 L 672 608 L 656 608 L 656 544.5 L 656.5 544 L 671.5 544 L 672 543.5 L 672 496 L 688 496 L 688 480 L 704 480 L 704 464 L 720 464 L 720 448 L 752 448 L 752 432 Z " /><path fill="rgb(96,102,115)" stroke="rgb(96,102,115)" stroke-width="1" opacity="1" d="M 784 432 L 800 432 L 800 448 L 784 448 L 784 432 Z " /><path fill="rgb(96,102,115)" stroke="rgb(96,102,115)" stroke-width="1" opacity="1" d="M 448 624 L 480 624 L 480 640 L 496 640 L 496 656 L 512 656 L 512 688 L 496 688 L 496 720 L 464 720 L 464 672.5 L 463.5 672 L 448.5 672 L 448 671.5 L 448 624 Z " /><path fill="rgb(96,102,115)" stroke="rgb(96,102,115)" stroke-width="1" opacity="1" d="M 656 736 L 767.5 736 L 768 736.5 L 768 750.5 L 766.5 752 L 672 752 L 672 784 L 704 784 L 704 800 L 656.5 800 L 656 799.5 L 656 784.5 L 655.5 784 L 576 784 L 576 800 L 544 800 L 544 832 L 528 832 L 528 848 L 512 848 L 512 880 L 496 880 L 496 912 L 480 912 L 480 944 L 464 944 L 464 976 L 448 976 L 448 928 L 464 928 L 464 912 L 480 912 L 480 880 L 496 880 L 496 848 L 512 848 L 512 832 L 528 832 L 528 800 L 544 800 L 544 784 L 576 784 L 576 768.5 L 576.5 768 L 656 768 L 656 736 Z " /><path fill="rgb(96,102,115)" stroke="rgb(96,102,115)" stroke-width="1" opacity="1" d="M 15.5 785 L 16 814.5 L 17 815.5 L 15 814.5 L 15.5 785 Z " /><path fill="rgb(96,102,115)" stroke="rgb(96,102,115)" stroke-width="1" opacity="1" d="M 64.5 1007 L 65.5 1008 L 80 1008 L 79.5 1024 L 79 1009 L 65.5 1009 L 64.5 1007 Z " /><path fill="rgb(60,111,111)" stroke="rgb(60,111,111)" stroke-width="1" opacity="1" d="M 544 96 L 560 96 L 560 111.5 L 560.5 112 L 608 112 L 608 128 L 624 128 L 624 144 L 640 144 L 640 160 L 608 160 L 608 128 L 592 128 L 592 144 L 560 144 L 560 128 L 544 128 L 544 96 Z M 545 97 L 545 127 L 561 127 L 561 143 L 591 143 L 591 127 L 607 127 L 607 113 L 560 113 L 559 113 L 559 97 L 545 97 Z M 609 129 L 609 159 L 639 159 L 639 145 L 623 145 L 623 129 L 609 129 Z " /><path fill="rgb(60,111,111)" stroke="rgb(60,111,111)" stroke-width="1" opacity="1" d="M 384 112 L 400 112 L 400 128 L 416 128 L 416 112 L 464 112 L 464 128 L 432 128 L 432 160 L 416 160 L 416 144 L 400 144 L 400 128 L 384 128 L 384 112 Z M 385 113 L 385 127 L 399 127 L 399 113 L 385 113 Z M 417 113 L 417 129 L 401 129 L 401 143 L 417 143 L 417 159 L 431 159 L 431 127 L 463 127 L 463 114 L 463 113 L 417 113 Z " /><path fill="rgb(60,111,111)" stroke="rgb(60,111,111)" stroke-width="1" opacity="1" d="M 480 112 L 496 112 L 496 128 L 512 128 L 512 112 L 528 112 L 528 128 L 512 128 L 512 144 L 496 144 L 496 128 L 480 128 L 480 112 Z M 481 113 L 481 127 L 495 127 L 495 113 L 481 113 Z M 513 113 L 513 127 L 527 127 L 527 113 L 513 113 Z M 497 129 L 497 143 L 511 143 L 511 129 L 497 129 Z " /><path fill="rgb(60,111,111)" stroke="rgb(60,111,111)" stroke-width="1" opacity="1" d="M 304 128 L 367.5 128 L 368 128.5 L 368 144 L 336 144 L 336 160 L 320 160 L 320 144 L 304 144 L 304 128 Z M 305 129 L 305 143 L 321 143 L 321 159 L 335 159 L 335 143 L 367 143 L 367 130 L 367 129 L 305 129 Z " /><path fill="rgb(60,111,111)" stroke="rgb(60,111,111)" stroke-width="1" opacity="1" d="M 656 128 L 672 128 L 672 144 L 688 144 L 688 160 L 672 160 L 672 144 L 656 144 L 656 128 Z M 657 129 L 657 143 L 671 143 L 671 129 L 657 129 Z M 673 145 L 673 159 L 687 159 L 687 145 L 673 145 Z " /><path fill="rgb(60,111,111)" stroke="rgb(60,111,111)" stroke-width="1" opacity="1" d="M 272 144 L 288 144 L 288 176 L 304 176 L 304 208 L 320 208 L 320 192 L 336 192 L 336 208 L 320 208 L 320 224 L 352 224 L 352 208 L 368 208 L 368 176 L 400 176 L 400 192 L 416 192 L 416 176 L 432 176 L 432 192 L 464 192 L 464 160 L 480 160 L 480 176 L 496 176 L 496 160 L 544 160 L 544 192 L 560 192 L 560 176 L 576 176 L 576 160 L 592 160 L 592 192 L 624 192 L 624 176 L 656 176 L 656 192 L 704 192 L 704 224 L 736 224 L 736 208 L 720 208 L 720 192 L 752 192 L 752 224 L 768 224 L 768 208 L 800 208 L 800 224 L 784 224 L 784 240 L 816 240 L 816 224 L 832 224 L 832 256 L 880 256 L 880 272 L 896 272 L 896 304 L 912 304 L 912 320 L 928 320 L 928 256.5 L 927.5 256 L 896 256 L 896 208 L 912 208 L 912 240 L 944 240 L 944 272 L 960 272 L 960 256 L 976 256 L 976 272 L 1007.5 272 L 1007.5 273 L 977 273 L 977 303 L 991 303 L 991 287 L 1006.5 287 L 1006.5 288 L 992 288 L 992 304 L 976 304 L 976 272 L 960 272 L 960 288 L 944 288 L 944 320 L 960 320 L 960 352 L 974.5 352 L 974.5 353 L 959 353 L 959 321 L 945 321 L 945 337 L 928.5 337 L 927 335.5 L 927 321 L 912.5 321 L 911 319.5 L 911 305 L 895 305 L 895 273 L 881 273 L 881 289 L 863 289 L 863 271 L 879 271 L 879 257 L 831 257 L 831 225 L 817 225 L 817 241 L 783 241 L 783 223 L 799 223 L 799 209 L 769 209 L 769 225 L 751 225 L 751 193 L 721 193 L 721 207 L 737 207 L 737 225 L 703 225 L 703 193 L 655.5 193 L 655 192.5 L 655 177 L 625 177 L 625 193 L 591 193 L 591 161 L 577 161 L 577 177 L 561 177 L 561 193 L 544.5 193 L 543 191.5 L 543 161 L 497.5 161 L 497 161.5 L 497 175 L 513 175 L 513 193 L 495 193 L 495 177 L 479 177 L 479 161 L 465 161 L 465 193 L 431 193 L 431 177 L 417 177 L 417 193 L 399 193 L 399 177 L 369 177 L 369 209 L 353 209 L 353 225 L 319 225 L 319 209 L 303 209 L 303 177 L 289 177 L 289 209 L 257 209 L 257 225 L 241 225 L 241 241 L 223 241 L 223 209 L 207 209 L 207 193 L 177 193 L 177 223 L 209 223 L 209 257 L 193 257 L 193 273 L 161 273 L 161 289 L 145 289 L 145 303 L 161 303.5 L 144 304 L 144 320 L 159.5 320 L 159.5 321 L 143 321 L 143 305 L 129 305 L 129 321 L 111 321 L 111 305 L 81.5 305 L 81.5 304 L 112 304 L 112 320 L 128 320 L 128 304 L 144 304 L 144 288 L 160 288 L 160 272 L 192 272 L 192 256 L 208 256 L 208 224 L 176 224 L 176 192 L 208 192 L 208 208 L 224 208 L 224 240 L 240 240 L 240 224 L 256 224 L 256 208 L 288 208 L 288 176 L 272 176 L 272 192 L 256 192 L 256 176 L 240 176 L 240 160 L 256 160 L 256 176 L 272 176 L 272 144 Z M 273 145 L 273 175 L 287 175 L 287 145 L 273 145 Z M 241 161 L 241 175 L 255 175 L 255 161 L 241 161 Z M 496 176 L 496 192 L 512 192 L 512 176 L 496 176 Z M 257 177 L 257 191 L 271 191 L 271 177 L 257 177 Z M 321 193 L 321 207 L 335 207 L 335 193 L 321 193 Z M 897 209 L 897 255 L 929 255 L 929 256 L 929 319 L 943 319 L 943 287 L 959 287 L 959 273 L 943 273 L 943 241 L 911 241 L 911 209 L 897 209 Z M 961 257 L 961 271 L 975 271 L 975 257 L 961 257 Z M 864 272 L 864 288 L 880 288 L 880 272 L 864 272 Z M 928 320 L 928 336 L 944 336 L 944 320 L 928 320 Z " /><path fill="rgb(60,111,111)" stroke="rgb(60,111,111)" stroke-width="1" opacity="1" d="M 704 144 L 720 144 L 720 176 L 704 176 L 704 144 Z M 705 145 L 705 175 L 719 175 L 719 145 L 705 145 Z " /><path fill="rgb(60,111,111)" stroke="rgb(60,111,111)" stroke-width="1" opacity="1" d="M 736 144 L 768 144 L 768 160 L 736 160 L 736 144 Z M 737 145 L 737 159 L 767 159 L 767 145 L 737 145 Z " /><path fill="rgb(60,111,111)" stroke="rgb(60,111,111)" stroke-width="1" opacity="1" d="M 784 144 L 800 144 L 800 176 L 784 176 L 784 144 Z M 785 145 L 785 175 L 799 175 L 799 145 L 785 145 Z " /><path fill="rgb(60,111,111)" stroke="rgb(60,111,111)" stroke-width="1" opacity="1" d="M 832 176 L 848 176 L 848 192 L 832 192 L 832 208 L 816 208 L 816 192 L 832 192 L 832 176 Z M 833 177 L 833 191 L 847 191 L 847 177 L 833 177 Z M 817 193 L 817 207 L 831 207 L 831 193 L 817 193 Z " /><path fill="rgb(60,111,111)" stroke="rgb(60,111,111)" stroke-width="1" opacity="1" d="M 864 176 L 880 176 L 880 208 L 864 208 L 864 176 Z M 865 177 L 865 207 L 879 207 L 879 177 L 865 177 Z " /><path fill="rgb(60,111,111)" stroke="rgb(60,111,111)" stroke-width="1" opacity="1" d="M 96 240 L 112 240 L 112 288 L 96 288 L 96 240 Z M 97 241 L 97 287 L 98 287 L 111 287 L 111 242 L 111 241 L 97 241 Z " /><path fill="rgb(60,111,111)" stroke="rgb(60,111,111)" stroke-width="1" opacity="1" d="M 95.5 335 L 113 335 L 113 383.5 L 111.5 385 L 97.5 385 L 97.5 384 L 111.5 384 L 112 383.5 L 112 336 L 95.5 336 L 95.5 335 Z " /><path fill="rgb(60,111,111)" stroke="rgb(60,111,111)" stroke-width="1" opacity="1" d="M 96.5 399 L 97 417 L 81 416.5 L 96 416 L 96.5 399 Z " /><path fill="rgb(60,111,111)" stroke="rgb(60,111,111)" stroke-width="1" opacity="1" d="M 0.5 784 L 16 784.5 L 0.5 785 L 0.5 784 Z " /><path fill="rgb(60,111,111)" stroke="rgb(60,111,111)" stroke-width="1" opacity="1" d="M 15.5 815 L 16 928 L 32 928 L 32 960 L 48 960 L 48 992 L 16 992 L 16 1008 L 65 1008.5 L 15 1009 L 15 991 L 47 991 L 47 961 L 31 961 L 31 929 L 15.5 929 L 15 928.5 L 15.5 815 Z " /><path fill="rgb(61,111,112)" stroke="rgb(61,111,112)" stroke-width="1" opacity="1" d="M 545 97 L 559 97 L 559 112.5 L 559.5 113 L 607 113 L 607 127 L 591 127 L 591 143 L 561 143 L 561 127 L 545 127 L 545 97 Z " /><path fill="rgb(61,111,112)" stroke="rgb(61,111,112)" stroke-width="1" opacity="1" d="M 385 113 L 399 113 L 399 127 L 385 127 L 385 113 Z " /><path fill="rgb(61,111,112)" stroke="rgb(61,111,112)" stroke-width="1" opacity="1" d="M 417 113 L 462.5 113 L 463 113.5 L 463 127 L 431 127 L 431 159 L 417 159 L 417 143 L 401 143 L 401 129 L 417 129 L 417 113 Z " /><path fill="rgb(61,111,112)" stroke="rgb(61,111,112)" stroke-width="1" opacity="1" d="M 481 113 L 495 113 L 495 127 L 481 127 L 481 113 Z " /><path fill="rgb(61,111,112)" stroke="rgb(61,111,112)" stroke-width="1" opacity="1" d="M 513 113 L 527 113 L 527 127 L 513 127 L 513 113 Z " /><path fill="rgb(61,111,112)" stroke="rgb(61,111,112)" stroke-width="1" opacity="1" d="M 305 129 L 366.5 129 L 367 129.5 L 367 143 L 335 143 L 335 159 L 321 159 L 321 143 L 305 143 L 305 129 Z " /><path fill="rgb(61,111,112)" stroke="rgb(61,111,112)" stroke-width="1" opacity="1" d="M 497 129 L 511 129 L 511 143 L 497 143 L 497 129 Z " /><path fill="rgb(61,111,112)" stroke="rgb(61,111,112)" stroke-width="1" opacity="1" d="M 609 129 L 623 129 L 623 145 L 639 145 L 639 159 L 609 159 L 609 129 Z " /><path fill="rgb(61,111,112)" stroke="rgb(61,111,112)" stroke-width="1" opacity="1" d="M 657 129 L 671 129 L 671 143 L 657 143 L 657 129 Z " /><path fill="rgb(61,111,112)" stroke="rgb(61,111,112)" stroke-width="1" opacity="1" d="M 273 145 L 287 145 L 287 175 L 273 175 L 273 145 Z " /><path fill="rgb(61,111,112)" stroke="rgb(61,111,112)" stroke-width="1" opacity="1" d="M 673 145 L 687 145 L 687 159 L 673 159 L 673 145 Z " /><path fill="rgb(61,111,112)" stroke="rgb(61,111,112)" stroke-width="1" opacity="1" d="M 705 145 L 719 145 L 719 175 L 705 175 L 705 145 Z " /><path fill="rgb(61,111,112)" stroke="rgb(61,111,112)" stroke-width="1" opacity="1" d="M 737 145 L 767 145 L 767 159 L 737 159 L 737 145 Z " /><path fill="rgb(61,111,112)" stroke="rgb(61,111,112)" stroke-width="1" opacity="1" d="M 785 145 L 799 145 L 799 175 L 785 175 L 785 145 Z " /><path fill="rgb(61,111,112)" stroke="rgb(61,111,112)" stroke-width="1" opacity="1" d="M 241 161 L 255 161 L 255 175 L 241 175 L 241 161 Z " /><path fill="rgb(61,111,112)" stroke="rgb(61,111,112)" stroke-width="1" opacity="1" d="M 465 161 L 479 161 L 479 177 L 495 177 L 495 193 L 513 193 L 513 175 L 497 175 L 497 161 L 543 161 L 543 192 L 528 192 L 528 208 L 544 208 L 544 193 L 561 193 L 561 177 L 577 177 L 577 161 L 591 161 L 591 193 L 625 193 L 625 177 L 655 177 L 655 193 L 703 193 L 703 225 L 737 225 L 737 207 L 721 207 L 721 193 L 751 193 L 751 225 L 769 225 L 769 209 L 799 209 L 799 223 L 783 223 L 783 241 L 817 241 L 817 225 L 831 225 L 831 257 L 878.5 257 L 879 257.5 L 879 271 L 863 271 L 863 289 L 881 289 L 881 273 L 895 273 L 895 305 L 911 305 L 911 320 L 896 320 L 896 336 L 912 336 L 912 321 L 927 321 L 927 336 L 912.5 336 L 912 336.5 L 912 368 L 928 368 L 928 337 L 945 337 L 945 321 L 959 321 L 959 353 L 975 353 L 975 367 L 943 367 L 943 430.5 L 942.5 431 L 928 431 L 928 384 L 912 384 L 912 368 L 896 368 L 896 336 L 880 336 L 880 320 L 864 320 L 864 336 L 832 336 L 832 320 L 864 320 L 864 304 L 848 304 L 848 288 L 832 288 L 832 272 L 816 272 L 816 256 L 800 256 L 800 288 L 816 288 L 816 304 L 784 304 L 784 256 L 768 256 L 768 272 L 736 272 L 736 256 L 768 256 L 768 240 L 720.5 240 L 720 240.5 L 720 256 L 704 256 L 704 240 L 688 240 L 688 208 L 672 208 L 672 255.5 L 672.5 256 L 688 256 L 688 272 L 672 272 L 672 256 L 656 256 L 656 240 L 640 240 L 640 256 L 624 256 L 624 224 L 608 224 L 608 208 L 592 208 L 592 256 L 576 256 L 576 224 L 560 224 L 560 240 L 528 240 L 528 256 L 512 256 L 512 240 L 496 240 L 496 256 L 480 256 L 480 240 L 464 240 L 464 256 L 448 256 L 448 240 L 464 240 L 464 208 L 448 208 L 448 224 L 432 224 L 432 208 L 384 208 L 384 256 L 368 256 L 368 240 L 352 240 L 352 272 L 336 272 L 336 288 L 305.5 288 L 304 286.5 L 304 272 L 288 272 L 288 288 L 272 288 L 272 256 L 256 256 L 256 272 L 240 272 L 240 256 L 224 256 L 224 304 L 240 304 L 240 288 L 256 288 L 256 304 L 240 304 L 240 336 L 176 336 L 176 383.5 L 175.5 384 L 160 384 L 160 400 L 144 400 L 144 448 L 112 448 L 112 432 L 96 432 L 96 463 L 81 463 L 81 417 L 97 417 L 97 385 L 112 385 L 112 416 L 128 416 L 128 400 L 144 400 L 144 384 L 160 384 L 160 352 L 128 352 L 128 384 L 113 384 L 113 335 L 81 335 L 81 305 L 111 305 L 111 321 L 129 321 L 129 305 L 143 305 L 143 321 L 160 321 L 160 336 L 176 336 L 176 320 L 224 320 L 224 304 L 208 304 L 208 288 L 192 288 L 192 304 L 161.5 304 L 160.5 303 L 145 303 L 145 289 L 161 289 L 161 273 L 193 273 L 193 257 L 209 257 L 209 223 L 177 223 L 177 193 L 207 193 L 207 209 L 223 209 L 223 241 L 241 241 L 241 225 L 257 225 L 257 209 L 289 209 L 289 177 L 303 177 L 303 209 L 319 209 L 319 225 L 353 225 L 353 209 L 369 209 L 369 177 L 399 177 L 399 193 L 417 193 L 417 177 L 431 177 L 431 193 L 465 193 L 465 161 Z M 480 208 L 480 224 L 528 224 L 528 208 L 480 208 Z M 544 208 L 544 224 L 560 224 L 560 208 L 544 208 Z M 640 208 L 640 224 L 656 224 L 656 208 L 640 208 Z M 288 224 L 288 256 L 320 256 L 320 272 L 336 272 L 336 240 L 304 240 L 304 224 L 288 224 Z " /><path fill="rgb(61,111,112)" stroke="rgb(61,111,112)" stroke-width="1" opacity="1" d="M 257 177 L 271 177 L 271 191 L 257 191 L 257 177 Z " /><path fill="rgb(61,111,112)" stroke="rgb(61,111,112)" stroke-width="1" opacity="1" d="M 833 177 L 847 177 L 847 191 L 833 191 L 833 177 Z " /><path fill="rgb(61,111,112)" stroke="rgb(61,111,112)" stroke-width="1" opacity="1" d="M 865 177 L 879 177 L 879 207 L 865 207 L 865 177 Z " /><path fill="rgb(61,111,112)" stroke="rgb(61,111,112)" stroke-width="1" opacity="1" d="M 321 193 L 335 193 L 335 207 L 321 207 L 321 193 Z " /><path fill="rgb(61,111,112)" stroke="rgb(61,111,112)" stroke-width="1" opacity="1" d="M 817 193 L 831 193 L 831 207 L 817 207 L 817 193 Z " /><path fill="rgb(61,111,112)" stroke="rgb(61,111,112)" stroke-width="1" opacity="1" d="M 897 209 L 911 209 L 911 241 L 943 241 L 943 273 L 959 273 L 959 287 L 943 287 L 943 319 L 929 319 L 929 255.5 L 928.5 255 L 897 255 L 897 209 Z " /><path fill="rgb(61,111,112)" stroke="rgb(61,111,112)" stroke-width="1" opacity="1" d="M 400 224 L 416 224 L 416 240 L 432 240 L 432 256 L 416 256 L 416 240 L 400 240 L 400 224 Z " /><path fill="rgb(61,111,112)" stroke="rgb(61,111,112)" stroke-width="1" opacity="1" d="M 97 241 L 110.5 241 L 111 241.5 L 111 287 L 97.5 287 L 97 286.5 L 97 241 Z " /><path fill="rgb(61,111,112)" stroke="rgb(61,111,112)" stroke-width="1" opacity="1" d="M 961 257 L 975 257 L 975 271 L 961 271 L 961 257 Z " /><path fill="rgb(61,111,112)" stroke="rgb(61,111,112)" stroke-width="1" opacity="1" d="M 977 273 L 1007 273 L 1007 287 L 991 287 L 991 303 L 977 303 L 977 273 Z " /><path fill="rgb(61,111,112)" stroke="rgb(61,111,112)" stroke-width="1" opacity="1" d="M 97 464 L 128 464 L 128 480 L 112 480 L 112 495 L 97 495 L 97 464 Z " /><path fill="rgb(61,111,112)" stroke="rgb(61,111,112)" stroke-width="1" opacity="1" d="M 0 785 L 14.5 785 L 15 785.5 L 15 928.5 L 15.5 929 L 31 929 L 31 960.5 L 31.5 961 L 47 961 L 47 991 L 15 991 L 15 1009 L 78.5 1009 L 79 1009.5 L 79 1024 L 0.5 1024 L 0 1023.5 L 0 785 Z " /><path fill="rgb(16,15,15)" stroke="rgb(16,15,15)" stroke-width="1" opacity="1" d="M 465 337 L 511 337 L 511 399.5 L 512.5 401 L 575.5 401 L 577 399.5 L 577 369 L 591.5 369 L 592 369.5 L 592 480 L 624 480 L 624 496 L 640 496 L 640.5 480 L 641 496.5 L 640 497.5 L 640 526.5 L 638.5 528 L 625.5 528 L 624.5 527 L 623.5 528 L 608 528 L 608 544 L 593.5 544 L 593.5 543 L 607 543 L 607 528.5 L 608.5 527 L 624 527 L 624 512 L 609.5 512 L 608 510.5 L 608 496 L 561.5 496 L 560 494.5 L 560 480 L 575.5 480 L 576 479.5 L 576 416 L 512 416 L 512 480 L 544 480 L 544 494.5 L 542.5 496 L 464 496 L 464 592 L 496 592 L 496 561.5 L 497.5 560 L 544 560 L 544 497.5 L 545.5 496 L 558.5 496 L 560 497.5 L 560 560 L 574.5 560 L 576 561.5 L 576 640 L 638.5 640 L 640 641.5 L 640 654.5 L 638.5 656 L 576 656 L 576 766.5 L 575 767.5 L 575 783 L 560.5 783 L 560 782.5 L 560 736 L 512 736 L 512 799.5 L 512.5 800 L 527 800 L 527 816 L 480 816 L 480 878.5 L 479 879.5 L 479 911 L 465 911 L 465 895.5 L 464 894.5 L 464 832 L 432 832 L 432 847.5 L 430.5 847 L 417 847 L 417 831.5 L 416 830.5 L 416 816 L 432 816 L 432 753.5 L 432.5 753 L 448 753 L 448 815.5 L 448.5 816 L 464 816 L 464 801.5 L 465.5 800 L 496 800 L 496 737.5 L 497 736.5 L 497 721 L 512.5 721 L 513.5 720 L 560 720 L 560 576 L 512 576 L 512 623 L 496 623 L 496 608 L 481.5 608 L 480.5 607 L 417 607 L 417 592 L 447.5 592 L 448 591.5 L 448 512 L 401.5 512 L 400.5 511 L 385 511 L 385 496.5 L 385.5 496 L 432 496 L 432 432 L 368 432 L 368 494.5 L 367.5 495 L 352 495 L 352 417.5 L 353.5 416 L 415.5 417 L 417 415.5 L 417 353 L 463.5 353 L 464 353.5 L 464 366.5 L 462.5 368 L 432 368 L 432 415.5 L 432.5 416 L 446.5 416 L 448 417.5 L 448 496 L 464 496 L 464 480 L 495.5 480 L 496 479.5 L 496 352 L 465 352 L 465 337 Z " /><path fill="rgb(16,15,15)" stroke="rgb(16,15,15)" stroke-width="1" opacity="1" d="M 593 337 L 687 337 L 687 384.5 L 687.5 385 L 704 385 L 704 398.5 L 702.5 400 L 688 400 L 688 446.5 L 686.5 448 L 673.5 448 L 672 446.5 L 672 352 L 608 352 L 608 366.5 L 606.5 368 L 593 368 L 593 337 Z " /><path fill="rgb(16,15,15)" stroke="rgb(16,15,15)" stroke-width="1" opacity="1" d="M 305 353 L 382.5 353 L 383 353.5 L 383 368 L 320 368 L 320 448 L 336 448 L 336 494.5 L 335 495.5 L 335 511 L 304 512 L 304 528 L 287.5 528 L 286.5 527 L 273 527 L 273 512 L 288 512 L 288 497.5 L 289.5 496 L 320 496 L 320 448 L 273.5 448 L 273 447.5 L 273 433 L 305 433 L 305 353 Z " /><path fill="rgb(16,15,15)" stroke="rgb(16,15,15)" stroke-width="1" opacity="1" d="M 705 369 L 751 369 L 751 385 L 767 385 L 767 400 L 737.5 400 L 736 398.5 L 736 384 L 705 384 L 705 369 Z " /><path fill="rgb(16,15,15)" stroke="rgb(16,15,15)" stroke-width="1" opacity="1" d="M 720.5 416 L 721 431.5 L 719.5 433 L 703.5 433 L 703.5 432 L 720 432 L 720.5 416 Z " /><path fill="rgb(16,15,15)" stroke="rgb(16,15,15)" stroke-width="1" opacity="1" d="M 911.5 433 L 912 574.5 L 910.5 576 L 896 576 L 896 590.5 L 894.5 592 L 880 592 L 880 622.5 L 878.5 624 L 848 624 L 848 654.5 L 846.5 656 L 832 656 L 832 670.5 L 830.5 672 L 816 672 L 816 702.5 L 814.5 704 L 800 704 L 800 718.5 L 798.5 720 L 784.5 720 L 784.5 719 L 799 719 L 799 704.5 L 800.5 703 L 815 703 L 815 672.5 L 816.5 671 L 831 671 L 831 656.5 L 832.5 655 L 847 655 L 847 624.5 L 848.5 623 L 879 623 L 879 592.5 L 880.5 591 L 895 591 L 895 576.5 L 896.5 575 L 910.5 575 L 911 574.5 L 911.5 433 Z " /><path fill="rgb(16,15,15)" stroke="rgb(16,15,15)" stroke-width="1" opacity="1" d="M 257 449 L 271.5 449 L 272 449.5 L 272 511 L 257.5 511 L 257 510.5 L 257 449 Z " /><path fill="rgb(16,15,15)" stroke="rgb(16,15,15)" stroke-width="1" opacity="1" d="M 591.5 545 L 592 606.5 L 591 606.5 L 591.5 545 Z " /><path fill="rgb(16,15,15)" stroke="rgb(16,15,15)" stroke-width="1" opacity="1" d="M 609.5 624 L 640 624.5 L 609.5 625 L 609.5 624 Z " /><path fill="rgb(16,15,15)" stroke="rgb(16,15,15)" stroke-width="1" opacity="1" d="M 641.5 656 L 654.5 656 L 656 657.5 L 656 704 L 686.5 704 L 688 705.5 L 688 735 L 672 735 L 672 720.5 L 671.5 720 L 624 720 L 624 767 L 608 767 L 608 705.5 L 609.5 704 L 640 704 L 640 657.5 L 641.5 656 Z " /><path fill="rgb(16,15,15)" stroke="rgb(16,15,15)" stroke-width="1" opacity="1" d="M 703.5 720 L 704 734.5 L 703 734.5 L 703.5 720 Z " /><path fill="rgb(16,15,15)" stroke="rgb(16,15,15)" stroke-width="1" opacity="1" d="M 385 753 L 399.5 753 L 400 753.5 L 400 831 L 385 831 L 385 817.5 L 384 816.5 L 384 769.5 L 385 768.5 L 385 753 Z " /><path fill="rgb(16,15,15)" stroke="rgb(16,15,15)" stroke-width="1" opacity="1" d="M 368.5 768 L 369 798.5 L 368 798.5 L 368.5 768 Z " /><path fill="rgb(16,15,15)" stroke="rgb(16,15,15)" stroke-width="1" opacity="1" d="M 352 800 L 367 800.5 L 353 801 L 353 815 L 366.5 815 L 366.5 816 L 352 816 L 352 800 Z " /><path fill="rgb(159,72,57)" stroke="rgb(159,72,57)" stroke-width="1" opacity="1" d="M 0 240 L 16 240 L 16 288 L 0 288 L 0 240 Z " /><path fill="rgb(159,72,57)" stroke="rgb(159,72,57)" stroke-width="1" opacity="1" d="M 33.5 271 L 47 271.5 L 33.5 272 L 33.5 271 Z " /><path fill="rgb(159,72,57)" stroke="rgb(159,72,57)" stroke-width="1" opacity="1" d="M 31.5 273 L 32 304 L 17 303.5 L 31 303 L 31.5 273 Z " /><path fill="rgb(159,72,57)" stroke="rgb(159,72,57)" stroke-width="1" opacity="1" d="M 48.5 273 L 49 287 L 63 287.5 L 48 288 L 48.5 273 Z " /><path fill="rgb(159,72,57)" stroke="rgb(159,72,57)" stroke-width="1" opacity="1" d="M 64.5 289 L 65 318.5 L 64 318.5 L 64.5 289 Z " /><path fill="rgb(159,72,57)" stroke="rgb(159,72,57)" stroke-width="1" opacity="1" d="M 1009.5 303 L 1024 303.5 L 1009.5 304 L 1009.5 303 Z " /><path fill="rgb(159,72,57)" stroke="rgb(159,72,57)" stroke-width="1" opacity="1" d="M 15.5 305 L 16 352 L 32 352 L 32 368 L 0 368 L 0 320 L 15 320 L 15.5 305 Z " /><path fill="rgb(159,72,57)" stroke="rgb(159,72,57)" stroke-width="1" opacity="1" d="M 1007.5 305 L 1008 368 L 993 367.5 L 1007 367 L 1007.5 305 Z " /><path fill="rgb(159,72,57)" stroke="rgb(159,72,57)" stroke-width="1" opacity="1" d="M 32 320 L 63 320.5 L 33 321 L 32.5 351 L 32 320 Z " /><path fill="rgb(159,72,57)" stroke="rgb(159,72,57)" stroke-width="1" opacity="1" d="M 49.5 351 L 79 351.5 L 49.5 352 L 49.5 351 Z " /><path fill="rgb(159,72,57)" stroke="rgb(159,72,57)" stroke-width="1" opacity="1" d="M 47.5 353 L 48 384 L 17 383.5 L 47 383 L 47.5 353 Z " /><path fill="rgb(159,72,57)" stroke="rgb(159,72,57)" stroke-width="1" opacity="1" d="M 80.5 353 L 81 382.5 L 80 382.5 L 80.5 353 Z " /><path fill="rgb(159,72,57)" stroke="rgb(159,72,57)" stroke-width="1" opacity="1" d="M 991.5 369 L 992 382.5 L 991 382.5 L 991.5 369 Z " /><path fill="rgb(159,72,57)" stroke="rgb(159,72,57)" stroke-width="1" opacity="1" d="M 961.5 383 L 975 383.5 L 961.5 384 L 961.5 383 Z " /><path fill="rgb(159,72,57)" stroke="rgb(159,72,57)" stroke-width="1" opacity="1" d="M 0 384 L 16 384 L 16 416 L 62.5 416 L 62.5 417 L 48 417 L 48 432 L 32 432 L 32 447 L 63 447.5 L 32 448 L 32 464 L 48 464 L 48 478.5 L 47 478.5 L 47 465 L 33 465 L 33 574.5 L 33.5 575 L 48 575 L 48 512.5 L 48.5 512 L 64 512 L 64 496 L 48 496 L 48 480 L 64 480 L 64 449.5 L 65 449.5 L 65 479 L 78.5 479 L 78.5 480 L 64 480 L 64 496 L 80 496 L 80 510.5 L 78.5 512 L 64 512 L 64 574.5 L 62.5 576 L 49.5 576 L 49 576.5 L 49 655 L 63 655.5 L 48 656 L 48 576.5 L 47.5 576 L 32.5 576 L 32 575.5 L 32 464.5 L 31.5 464 L 17.5 464 L 17.5 463 L 31 463 L 31 448 L 16 448 L 16 432 L 0 432 L 0 384 Z " /><path fill="rgb(159,72,57)" stroke="rgb(159,72,57)" stroke-width="1" opacity="1" d="M 64 384 L 79 384.5 L 65 385 L 64.5 415 L 64 384 Z " /><path fill="rgb(159,72,57)" stroke="rgb(159,72,57)" stroke-width="1" opacity="1" d="M 993.5 384 L 1024 384 L 1024 400 L 1008 400 L 1008 385 L 993.5 385 L 993.5 384 Z " /><path fill="rgb(159,72,57)" stroke="rgb(159,72,57)" stroke-width="1" opacity="1" d="M 959.5 385 L 960 414.5 L 959 414.5 L 959.5 385 Z " /><path fill="rgb(159,72,57)" stroke="rgb(159,72,57)" stroke-width="1" opacity="1" d="M 976.5 385 L 977 399 L 991 399.5 L 976 400 L 976.5 385 Z " /><path fill="rgb(159,72,57)" stroke="rgb(159,72,57)" stroke-width="1" opacity="1" d="M 992.5 401 L 993 415 L 1007 415.5 L 992 416 L 992.5 401 Z " /><path fill="rgb(159,72,57)" stroke="rgb(159,72,57)" stroke-width="1" opacity="1" d="M 961.5 416 L 976 416 L 976 446.5 L 975 446.5 L 975 417 L 961.5 417 L 961.5 416 Z " /><path fill="rgb(159,72,57)" stroke="rgb(159,72,57)" stroke-width="1" opacity="1" d="M 1008.5 417 L 1009 432 L 1023.5 432 L 1024 432.5 L 1024 496 L 1008 496 L 1008 464 L 976 464 L 976 448 L 1008 448 L 1008.5 417 Z " /><path fill="rgb(159,72,57)" stroke="rgb(159,72,57)" stroke-width="1" opacity="1" d="M 945.5 447 L 959 447.5 L 945.5 448 L 945.5 447 Z " /><path fill="rgb(159,72,57)" stroke="rgb(159,72,57)" stroke-width="1" opacity="1" d="M 943.5 449 L 944 464 L 929 463.5 L 943 463 L 943.5 449 Z " /><path fill="rgb(159,72,57)" stroke="rgb(159,72,57)" stroke-width="1" opacity="1" d="M 960.5 449 L 961 479 L 991 479.5 L 960 480 L 960.5 449 Z " /><path fill="rgb(159,72,57)" stroke="rgb(159,72,57)" stroke-width="1" opacity="1" d="M 15.5 465 L 16 590.5 L 15 590.5 L 15.5 465 Z " /><path fill="rgb(159,72,57)" stroke="rgb(159,72,57)" stroke-width="1" opacity="1" d="M 927.5 465 L 928 478.5 L 927 478.5 L 927.5 465 Z " /><path fill="rgb(159,72,57)" stroke="rgb(159,72,57)" stroke-width="1" opacity="1" d="M 928 480 L 944 480 L 944 512 L 960 512 L 960 528 L 1024 528 L 1024 608 L 1008 608 L 1008 640 L 1023.5 640 L 1024 640.5 L 1024 832 L 1008 832 L 1008 880 L 992 880 L 992 896 L 976 896 L 976 864 L 991.5 864 L 992 863.5 L 992 800.5 L 992.5 800 L 1007.5 800 L 1008 799.5 L 1008 688 L 993 687.5 L 1008 687 L 1008 640.5 L 1007.5 640 L 993 640 L 992.5 655 L 992 577.5 L 993 577.5 L 993 592 L 1008 592 L 1008 560 L 976 560 L 976 544 L 944 544 L 944 528 L 928 528 L 928 480 Z " /><path fill="rgb(159,72,57)" stroke="rgb(159,72,57)" stroke-width="1" opacity="1" d="M 80.5 481 L 81 494.5 L 80 494.5 L 80.5 481 Z " /><path fill="rgb(159,72,57)" stroke="rgb(159,72,57)" stroke-width="1" opacity="1" d="M 992.5 481 L 993 511 L 1024 511.5 L 992 512 L 992.5 481 Z " /><path fill="rgb(159,72,57)" stroke="rgb(159,72,57)" stroke-width="1" opacity="1" d="M 47.5 497 L 48 510.5 L 47 510.5 L 47.5 497 Z " /><path fill="rgb(159,72,57)" stroke="rgb(159,72,57)" stroke-width="1" opacity="1" d="M 929.5 559 L 943 559.5 L 929.5 560 L 929.5 559 Z " /><path fill="rgb(159,72,57)" stroke="rgb(159,72,57)" stroke-width="1" opacity="1" d="M 927.5 561 L 928 592 L 913 591.5 L 927 591 L 927.5 561 Z " /><path fill="rgb(159,72,57)" stroke="rgb(159,72,57)" stroke-width="1" opacity="1" d="M 944.5 561 L 945 575 L 991 575.5 L 944 576 L 944.5 561 Z " /><path fill="rgb(159,72,57)" stroke="rgb(159,72,57)" stroke-width="1" opacity="1" d="M 16 592 L 32 592 L 32 608 L 16 608 L 16 592 Z " /><path fill="rgb(159,72,57)" stroke="rgb(159,72,57)" stroke-width="1" opacity="1" d="M 960 592 L 976 592 L 976 624 L 960 624 L 960 672 L 976 672 L 976 656 L 992 656 L 992 672 L 977.5 672 L 976 673.5 L 976 704 L 961.5 704 L 960 705.5 L 960 736 L 945.5 736 L 944 737.5 L 944 752 L 928 752 L 928 736 L 944 736 L 944 704.5 L 944.5 704 L 960 704 L 960 672 L 945 671.5 L 959 671 L 959 624.5 L 958.5 624 L 945 624 L 944.5 639 L 944 608 L 960 608 L 960 623 L 975 623 L 975 593 L 961 593 L 960.5 607 L 960 592 Z " /><path fill="rgb(159,72,57)" stroke="rgb(159,72,57)" stroke-width="1" opacity="1" d="M 911.5 593 L 912 608 L 897 607.5 L 911 607 L 911.5 593 Z " /><path fill="rgb(159,72,57)" stroke="rgb(159,72,57)" stroke-width="1" opacity="1" d="M 15.5 609 L 16 622.5 L 15 622.5 L 15.5 609 Z " /><path fill="rgb(159,72,57)" stroke="rgb(159,72,57)" stroke-width="1" opacity="1" d="M 895.5 609 L 896 624 L 881 623.5 L 895 623 L 895.5 609 Z " /><path fill="rgb(159,72,57)" stroke="rgb(159,72,57)" stroke-width="1" opacity="1" d="M 16 624 L 32 624 L 32 671.5 L 32.5 672 L 47.5 672 L 48 672.5 L 48 720 L 32.5 720 L 32 720.5 L 32 814.5 L 31 814.5 L 31 721.5 L 30.5 721 L 17.5 721 L 17.5 720 L 31.5 720 L 32 719.5 L 32 672 L 16 672 L 16 624 Z " /><path fill="rgb(159,72,57)" stroke="rgb(159,72,57)" stroke-width="1" opacity="1" d="M 879.5 625 L 880 640 L 865 639.5 L 879 639 L 879.5 625 Z " /><path fill="rgb(159,72,57)" stroke="rgb(159,72,57)" stroke-width="1" opacity="1" d="M 928 640 L 944 640 L 944 656 L 929.5 656 L 928 657.5 L 928 672 L 913.5 672 L 912 673.5 L 912 704 L 897.5 704 L 896 705.5 L 896 720 L 881 720 L 881 734.5 L 880 734.5 L 880 704 L 895.5 704 L 896 703.5 L 896 672 L 912 672 L 912 656 L 928 656 L 928 640 Z " /><path fill="rgb(159,72,57)" stroke="rgb(159,72,57)" stroke-width="1" opacity="1" d="M 863.5 641 L 864 672 L 849 671.5 L 863 671 L 863.5 641 Z " /><path fill="rgb(159,72,57)" stroke="rgb(159,72,57)" stroke-width="1" opacity="1" d="M 64.5 657 L 65 735 L 79 735.5 L 64 736 L 64.5 657 Z " /><path fill="rgb(159,72,57)" stroke="rgb(159,72,57)" stroke-width="1" opacity="1" d="M 15.5 673 L 16 718.5 L 15 718.5 L 15.5 673 Z " /><path fill="rgb(159,72,57)" stroke="rgb(159,72,57)" stroke-width="1" opacity="1" d="M 847.5 673 L 848 688 L 833 687.5 L 847 687 L 847.5 673 Z " /><path fill="rgb(159,72,57)" stroke="rgb(159,72,57)" stroke-width="1" opacity="1" d="M 943.5 673 L 944 688 L 929 687.5 L 943 687 L 943.5 673 Z " /><path fill="rgb(159,72,57)" stroke="rgb(159,72,57)" stroke-width="1" opacity="1" d="M 831.5 689 L 832 704 L 817 703.5 L 831 703 L 831.5 689 Z " /><path fill="rgb(159,72,57)" stroke="rgb(159,72,57)" stroke-width="1" opacity="1" d="M 927.5 689 L 928 720 L 913 719.5 L 927 719 L 927.5 689 Z " /><path fill="rgb(159,72,57)" stroke="rgb(159,72,57)" stroke-width="1" opacity="1" d="M 991.5 689 L 992 720 L 977 719.5 L 991 719 L 991.5 689 Z " /><path fill="rgb(159,72,57)" stroke="rgb(159,72,57)" stroke-width="1" opacity="1" d="M 815.5 705 L 816 720 L 801 719.5 L 815 719 L 815.5 705 Z " /><path fill="rgb(159,72,57)" stroke="rgb(159,72,57)" stroke-width="1" opacity="1" d="M 799.5 721 L 800 736 L 785 735.5 L 799 735 L 799.5 721 Z " /><path fill="rgb(159,72,57)" stroke="rgb(159,72,57)" stroke-width="1" opacity="1" d="M 911.5 721 L 912 736 L 897 735.5 L 911 735 L 911.5 721 Z " /><path fill="rgb(159,72,57)" stroke="rgb(159,72,57)" stroke-width="1" opacity="1" d="M 975.5 721 L 976 752 L 961 751.5 L 975 751 L 975.5 721 Z " /><path fill="rgb(159,72,57)" stroke="rgb(159,72,57)" stroke-width="1" opacity="1" d="M 832 736 L 879 736.5 L 864 737 L 864 752 L 848 752 L 848 768 L 832 768 L 832 784 L 817.5 784 L 816 785.5 L 816 800 L 801.5 800 L 800 801.5 L 800 816 L 785.5 816 L 784 817.5 L 784 832 L 768 832 L 768 863 L 783 863.5 L 752 864 L 752 816 L 784 816 L 784 800 L 800 800 L 800 784 L 816 784 L 816 752 L 832 752 L 832 736 Z " /><path fill="rgb(159,72,57)" stroke="rgb(159,72,57)" stroke-width="1" opacity="1" d="M 80.5 737 L 81 767 L 95 767.5 L 80 768 L 80.5 737 Z " /><path fill="rgb(159,72,57)" stroke="rgb(159,72,57)" stroke-width="1" opacity="1" d="M 783.5 737 L 784 752 L 769 751.5 L 783 751 L 783.5 737 Z " /><path fill="rgb(159,72,57)" stroke="rgb(159,72,57)" stroke-width="1" opacity="1" d="M 895.5 737 L 896 752 L 881 751.5 L 895 751 L 895.5 737 Z " /><path fill="rgb(159,72,57)" stroke="rgb(159,72,57)" stroke-width="1" opacity="1" d="M 48 752 L 64 752 L 64 799.5 L 64.5 800 L 80 800 L 80 832 L 96 832 L 96 864 L 80 864 L 80 848 L 64 848 L 64 800.5 L 63.5 800 L 48.5 800 L 48 799.5 L 48 752 Z " /><path fill="rgb(159,72,57)" stroke="rgb(159,72,57)" stroke-width="1" opacity="1" d="M 767.5 753 L 768 768 L 753 767.5 L 767 767 L 767.5 753 Z " /><path fill="rgb(159,72,57)" stroke="rgb(159,72,57)" stroke-width="1" opacity="1" d="M 879.5 753 L 880 784 L 865 783.5 L 879 783 L 879.5 753 Z " /><path fill="rgb(159,72,57)" stroke="rgb(159,72,57)" stroke-width="1" opacity="1" d="M 944.5 753 L 945 766.5 L 944 766.5 L 944.5 753 Z " /><path fill="rgb(159,72,57)" stroke="rgb(159,72,57)" stroke-width="1" opacity="1" d="M 959.5 753 L 960 784 L 945 783.5 L 959 783 L 959.5 753 Z " /><path fill="rgb(159,72,57)" stroke="rgb(159,72,57)" stroke-width="1" opacity="1" d="M 912 768 L 943 768.5 L 928 769 L 928 784 L 912 784 L 912 768 Z " /><path fill="rgb(159,72,57)" stroke="rgb(159,72,57)" stroke-width="1" opacity="1" d="M 96.5 769 L 97 815 L 111 815.5 L 96 816 L 96.5 769 Z " /><path fill="rgb(159,72,57)" stroke="rgb(159,72,57)" stroke-width="1" opacity="1" d="M 751.5 769 L 752 784 L 737 783.5 L 751 783 L 751.5 769 Z " /><path fill="rgb(159,72,57)" stroke="rgb(159,72,57)" stroke-width="1" opacity="1" d="M 735.5 785 L 736 800 L 721 799.5 L 735 799 L 735.5 785 Z " /><path fill="rgb(159,72,57)" stroke="rgb(159,72,57)" stroke-width="1" opacity="1" d="M 863.5 785 L 864 816 L 849 815.5 L 863 815 L 863.5 785 Z " /><path fill="rgb(159,72,57)" stroke="rgb(159,72,57)" stroke-width="1" opacity="1" d="M 928.5 785 L 929 798.5 L 928 798.5 L 928.5 785 Z " /><path fill="rgb(159,72,57)" stroke="rgb(159,72,57)" stroke-width="1" opacity="1" d="M 943.5 785 L 944 832 L 929 831.5 L 943 831 L 943.5 785 Z " /><path fill="rgb(159,72,57)" stroke="rgb(159,72,57)" stroke-width="1" opacity="1" d="M 896 800 L 928 800 L 928 816 L 912 816 L 912 848 L 897.5 848 L 896 849.5 L 896 864 L 881 864 L 881 878.5 L 880 878.5 L 880 848 L 895.5 848 L 896 847.5 L 896 800 Z " /><path fill="rgb(159,72,57)" stroke="rgb(159,72,57)" stroke-width="1" opacity="1" d="M 719.5 801 L 720 816 L 705 815.5 L 719 815 L 719.5 801 Z " /><path fill="rgb(159,72,57)" stroke="rgb(159,72,57)" stroke-width="1" opacity="1" d="M 33.5 816 L 47.5 816 L 48 816.5 L 48 878.5 L 47 878.5 L 47 817.5 L 46.5 817 L 33.5 817 L 33.5 816 Z " /><path fill="rgb(159,72,57)" stroke="rgb(159,72,57)" stroke-width="1" opacity="1" d="M 112.5 817 L 113 831 L 127 831.5 L 112 832 L 112.5 817 Z " /><path fill="rgb(159,72,57)" stroke="rgb(159,72,57)" stroke-width="1" opacity="1" d="M 703.5 817 L 704 832 L 689 831.5 L 703 831 L 703.5 817 Z " /><path fill="rgb(159,72,57)" stroke="rgb(159,72,57)" stroke-width="1" opacity="1" d="M 847.5 817 L 848 832 L 833 831.5 L 847 831 L 847.5 817 Z " /><path fill="rgb(159,72,57)" stroke="rgb(159,72,57)" stroke-width="1" opacity="1" d="M 720 832 L 736 832 L 736 848 L 720 848 L 720 880 L 704 880 L 704 896 L 688 896 L 688 912 L 672 912 L 672 880 L 704 880 L 704 848 L 720 848 L 720 832 Z " /><path fill="rgb(159,72,57)" stroke="rgb(159,72,57)" stroke-width="1" opacity="1" d="M 128.5 833 L 129 847 L 143 847.5 L 128 848 L 128.5 833 Z " /><path fill="rgb(159,72,57)" stroke="rgb(159,72,57)" stroke-width="1" opacity="1" d="M 687.5 833 L 688 848 L 673 847.5 L 687 847 L 687.5 833 Z " /><path fill="rgb(159,72,57)" stroke="rgb(159,72,57)" stroke-width="1" opacity="1" d="M 831.5 833 L 832 848 L 817 847.5 L 831 847 L 831.5 833 Z " /><path fill="rgb(159,72,57)" stroke="rgb(159,72,57)" stroke-width="1" opacity="1" d="M 927.5 833 L 928 896 L 913 895.5 L 927 895 L 927.5 833 Z " /><path fill="rgb(159,72,57)" stroke="rgb(159,72,57)" stroke-width="1" opacity="1" d="M 144.5 849 L 145 895 L 159 895.5 L 144 896 L 144.5 849 Z " /><path fill="rgb(159,72,57)" stroke="rgb(159,72,57)" stroke-width="1" opacity="1" d="M 671.5 849 L 672 864 L 641 863.5 L 671 863 L 671.5 849 Z " /><path fill="rgb(159,72,57)" stroke="rgb(159,72,57)" stroke-width="1" opacity="1" d="M 815.5 849 L 816 880 L 784 880 L 784 865.5 L 785 865.5 L 785 879 L 815 879 L 815.5 849 Z " /><path fill="rgb(159,72,57)" stroke="rgb(159,72,57)" stroke-width="1" opacity="1" d="M 639.5 865 L 640 880 L 625 879.5 L 639 879 L 639.5 865 Z " /><path fill="rgb(159,72,57)" stroke="rgb(159,72,57)" stroke-width="1" opacity="1" d="M 49.5 880 L 63.5 880 L 64 880.5 L 64 926.5 L 63 926.5 L 63 881.5 L 62.5 881 L 49.5 881 L 49.5 880 Z " /><path fill="rgb(159,72,57)" stroke="rgb(159,72,57)" stroke-width="1" opacity="1" d="M 96 880 L 112 880 L 112 928 L 128 928 L 128 960 L 144 960 L 144 976 L 160 976 L 160 992 L 192 992 L 192 1007.5 L 192.5 1008 L 240 1008 L 240.5 993 L 241 1008 L 256 1008 L 256 1024 L 96.5 1024 L 96 1023.5 L 96 1008 L 111.5 1008 L 112 1007.5 L 112 928 L 96 928 L 96 880 Z " /><path fill="rgb(159,72,57)" stroke="rgb(159,72,57)" stroke-width="1" opacity="1" d="M 752 880 L 768 880 L 768 896 L 752 896 L 752 928 L 736 928 L 736 944 L 720 944 L 720 960 L 704 960 L 704 976 L 688 976 L 688 992 L 672 992 L 672 1008 L 736 1008 L 736 992 L 752 992 L 752 976 L 784 976 L 784 960 L 800 960 L 800 944 L 816 944 L 816 975.5 L 815.5 976 L 800 976 L 800 1008 L 847.5 1008 L 848 1007.5 L 848 992 L 864 992 L 864 1008 L 896 1008 L 896 992 L 912 992 L 912 976 L 928 976 L 928 960 L 944 960 L 944 1008 L 1008 1008 L 1008 992 L 960 992 L 960 944 L 975 944.5 L 961 945 L 961 991 L 1007 991 L 1007.5 977 L 1008 992 L 1024 992 L 1024 1024 L 416.5 1024 L 416 1023.5 L 416 1008 L 462.5 1008 L 463 1007.5 L 463 993.5 L 464 993.5 L 464 1007.5 L 464.5 1008 L 528 1008 L 528 992 L 544 992 L 544 976 L 576 976 L 576 944 L 545 943.5 L 575 943 L 575.5 929 L 576 944 L 608 944 L 608 928 L 624 928 L 624 912 L 656 912 L 656 928 L 640 928 L 640 944 L 608 944 L 608 960 L 592 960 L 592 976 L 576 976 L 576 992 L 592 992 L 592 1008 L 608 1008 L 608 992 L 640 992 L 640 976 L 656 976 L 656 960 L 672 960 L 672 944 L 704 944 L 704 928 L 720 928 L 720 896 L 752 896 L 752 880 Z " /><path fill="rgb(159,72,57)" stroke="rgb(159,72,57)" stroke-width="1" opacity="1" d="M 864 880 L 880 880 L 880 896 L 865 896 L 865 910.5 L 864 910.5 L 864 880 Z " /><path fill="rgb(159,72,57)" stroke="rgb(159,72,57)" stroke-width="1" opacity="1" d="M 623.5 881 L 624 896 L 609 895.5 L 623 895 L 623.5 881 Z " /><path fill="rgb(159,72,57)" stroke="rgb(159,72,57)" stroke-width="1" opacity="1" d="M 160.5 897 L 161 911 L 175 911.5 L 160 912 L 160.5 897 Z " /><path fill="rgb(159,72,57)" stroke="rgb(159,72,57)" stroke-width="1" opacity="1" d="M 607.5 897 L 608 912 L 593 911.5 L 607 911 L 607.5 897 Z " /><path fill="rgb(159,72,57)" stroke="rgb(159,72,57)" stroke-width="1" opacity="1" d="M 911.5 897 L 912 960 L 897 959.5 L 911 959 L 911.5 897 Z " /><path fill="rgb(159,72,57)" stroke="rgb(159,72,57)" stroke-width="1" opacity="1" d="M 992.5 897 L 993 910.5 L 992 910.5 L 992.5 897 Z " /><path fill="rgb(159,72,57)" stroke="rgb(159,72,57)" stroke-width="1" opacity="1" d="M 848 912 L 864 912 L 864 928 L 849.5 928 L 849 928.5 L 849 975 L 894.5 975 L 895 974.5 L 895 961.5 L 896 961.5 L 896 975.5 L 895.5 976 L 848 976 L 848 912 Z " /><path fill="rgb(159,72,57)" stroke="rgb(159,72,57)" stroke-width="1" opacity="1" d="M 976 912 L 991 912.5 L 977 913 L 976.5 943 L 976 912 Z " /><path fill="rgb(159,72,57)" stroke="rgb(159,72,57)" stroke-width="1" opacity="1" d="M 176.5 913 L 177 943 L 191 943.5 L 176 944 L 176.5 913 Z " /><path fill="rgb(159,72,57)" stroke="rgb(159,72,57)" stroke-width="1" opacity="1" d="M 591.5 913 L 592 928 L 577 927.5 L 591 927 L 591.5 913 Z " /><path fill="rgb(159,72,57)" stroke="rgb(159,72,57)" stroke-width="1" opacity="1" d="M 65.5 928 L 79.5 928 L 80 928.5 L 80 990.5 L 79 990.5 L 79 929.5 L 78.5 929 L 65.5 929 L 65.5 928 Z " /><path fill="rgb(159,72,57)" stroke="rgb(159,72,57)" stroke-width="1" opacity="1" d="M 192.5 945 L 193 959 L 207 959.5 L 192 960 L 192.5 945 Z " /><path fill="rgb(159,72,57)" stroke="rgb(159,72,57)" stroke-width="1" opacity="1" d="M 543.5 945 L 544 960 L 513 959.5 L 543 959 L 543.5 945 Z " /><path fill="rgb(159,72,57)" stroke="rgb(159,72,57)" stroke-width="1" opacity="1" d="M 208.5 961 L 209 975 L 223 975.5 L 208 976 L 208.5 961 Z " /><path fill="rgb(159,72,57)" stroke="rgb(159,72,57)" stroke-width="1" opacity="1" d="M 511.5 961 L 512 976 L 497 975.5 L 511 975 L 511.5 961 Z " /><path fill="rgb(159,72,57)" stroke="rgb(159,72,57)" stroke-width="1" opacity="1" d="M 1009.5 975 L 1024 975.5 L 1009.5 976 L 1009.5 975 Z " /><path fill="rgb(159,72,57)" stroke="rgb(159,72,57)" stroke-width="1" opacity="1" d="M 224.5 977 L 225 991 L 239 991.5 L 224 992 L 224.5 977 Z " /><path fill="rgb(159,72,57)" stroke="rgb(159,72,57)" stroke-width="1" opacity="1" d="M 495.5 977 L 496 992 L 465 991.5 L 495 991 L 495.5 977 Z " /><path fill="rgb(159,72,57)" stroke="rgb(159,72,57)" stroke-width="1" opacity="1" d="M 81.5 992 L 96 992 L 96 1006.5 L 95 1006.5 L 95 993 L 81.5 993 L 81.5 992 Z " /><path fill="rgb(54,52,75)" stroke="rgb(54,52,75)" stroke-width="1" opacity="1" d="M 528 192 L 544 192 L 544 208 L 560 208 L 560 224 L 576 224 L 576 256 L 592 256 L 592 208 L 608 208 L 608 224 L 624 224 L 624 256 L 640 256 L 640 240 L 656 240 L 656 256 L 672 256 L 672 208 L 688 208 L 688 240 L 704 240 L 704 256 L 720 256 L 720 240 L 768 240 L 768 256 L 783.5 256 L 784 256.5 L 784 304 L 816 304 L 816 288 L 800 288 L 800 256 L 816 256 L 816 272 L 832 272 L 832 288 L 848 288 L 848 304 L 864 304 L 864 320 L 880 320 L 880 336 L 896 336 L 896 320 L 912 320 L 912 336 L 928 336 L 928 368 L 912 368 L 912 384 L 928 384 L 928 432 L 896 432 L 896 416.5 L 895.5 416 L 849.5 416 L 848 414.5 L 848 400 L 785.5 400 L 784 398.5 L 784 384 L 753.5 384 L 752 382.5 L 752 368 L 704.5 368 L 704 368.5 L 704 382.5 L 702.5 384 L 689.5 384 L 688 382.5 L 688 369.5 L 689.5 368 L 704 368 L 704 352 L 689.5 352 L 688 350.5 L 688 336 L 609.5 336 L 608 334.5 L 608 320 L 592 320 L 592 336 L 576.5 336 L 576 336.5 L 576 382.5 L 574.5 384 L 528 384 L 528 368 L 513.5 368 L 512 366.5 L 512 336 L 465.5 336 L 464 334.5 L 464 320 L 448 320 L 448 336 L 416 336 L 416 382.5 L 414.5 384 L 400 384 L 400 336 L 384 336 L 384 350.5 L 382.5 352 L 304 352 L 304 430.5 L 302.5 432 L 289.5 432 L 288 430.5 L 288 400 L 272 400 L 272 446.5 L 270.5 448 L 256 448 L 256 462.5 L 254.5 464 L 240 464 L 240 480 L 254.5 480 L 256 481.5 L 256 494.5 L 254.5 496 L 208 496 L 208 512 L 224 512 L 224 528 L 240 528 L 240 512 L 256 512 L 256 544 L 271.5 544 L 272 544.5 L 272 592 L 288 592 L 288 576 L 320 576 L 320 592 L 336 592 L 336 528 L 352 528 L 352 512 L 368 512 L 368 528 L 383.5 528 L 384 528.5 L 384 575.5 L 384.5 576 L 400 576 L 400 608 L 416 608 L 416 624 L 432 624 L 432 671.5 L 432.5 672 L 447.5 672 L 448 672.5 L 448 720 L 432 720 L 432 736 L 384.5 736 L 384 736.5 L 384 752 L 368 752 L 368 720 L 352 720 L 352 704 L 337.5 704 L 337 703.5 L 337 657.5 L 334.5 655 L 321 655 L 321 641.5 L 318.5 639 L 305 639 L 305 625.5 L 302.5 623 L 273.5 623 L 271 625.5 L 271 639 L 256.5 639 L 255.5 640 L 208 640 L 208 576.5 L 208.5 576 L 223.5 576 L 224 575.5 L 224 528 L 208 528 L 208 544 L 192 544 L 192 528 L 177.5 528 L 176 526.5 L 176 512 L 161.5 512 L 160 510.5 L 160 496.5 L 159.5 496 L 112 496 L 112 480 L 128 480 L 128 464 L 96 464 L 96 432 L 112 432 L 112 448 L 144 448 L 144 400 L 128 400 L 128 416 L 112 416 L 112 384.5 L 112.5 384 L 128 384 L 128 352 L 160 352 L 160 384 L 176 384 L 176 336.5 L 175.5 336 L 160 336 L 160 304 L 192 304 L 192 288 L 208 288 L 208 304 L 224 304 L 224 256 L 240 256 L 240 272 L 256 272 L 256 256 L 272 256 L 272 288 L 288 288 L 288 272 L 304 272 L 304 288 L 336 288 L 336 272 L 320 272 L 320 256 L 288 256 L 288 224 L 304 224 L 304 240 L 336 240 L 336 272 L 352 272 L 352 240 L 368 240 L 368 256 L 384 256 L 384 208 L 432 208 L 432 224 L 448 224 L 448 208 L 464 208 L 464 240 L 480 240 L 480 256 L 496 256 L 496 240 L 512 240 L 512 256 L 528 256 L 528 240 L 560 240 L 560 224 L 544 224 L 544 208 L 528 208 L 528 224 L 480 224 L 480 208 L 528 208 L 528 192 Z M 400 224 L 400 240 L 416 240 L 416 224 L 400 224 Z M 416 240 L 416 256 L 432 256 L 432 240 L 416 240 Z M 448 240 L 448 256 L 464 256 L 464 240 L 448 240 Z M 672 256 L 672 272 L 688 272 L 688 256 L 672 256 Z M 736 256 L 736 272 L 768 272 L 768 256 L 736 256 Z M 240 288 L 240 304 L 256 304 L 256 288 L 240 288 Z M 224 304 L 224 320 L 176 320 L 176 336 L 177 336 L 240 336 L 240 304 L 224 304 Z M 832 320 L 832 336 L 864 336 L 864 320 L 832 320 Z M 528 336 L 528 368 L 560 368 L 560 352 L 544 352 L 544 336 L 528 336 Z M 896 336 L 896 368 L 912 368 L 912 336 L 896 336 Z M 784 368 L 784 384 L 800 384 L 800 368 L 784 368 Z M 144 384 L 144 400 L 160 400 L 160 384 L 144 384 Z M 240 416 L 240 432 L 256 432 L 256 416 L 240 416 Z M 224 448 L 224 464 L 240 464 L 240 448 L 224 448 Z M 192 480 L 192 496 L 208 496 L 208 480 L 192 480 Z M 384 624 L 384 656 L 400 656 L 400 624 L 384 624 Z " /><path fill="rgb(54,52,75)" stroke="rgb(54,52,75)" stroke-width="1" opacity="1" d="M 640 208 L 656 208 L 656 224 L 640 224 L 640 208 Z " /><path fill="rgb(54,52,75)" stroke="rgb(54,52,75)" stroke-width="1" opacity="1" d="M 112 672 L 159.5 672 L 160 672.5 L 160 688 L 176 688 L 176 720 L 190.5 720 L 191 720.5 L 191 783.5 L 192.5 785 L 207 785 L 207 799.5 L 208.5 801 L 223 801 L 223 815.5 L 224.5 817 L 239 817 L 239 831.5 L 240.5 833 L 255 833 L 255 847.5 L 256.5 849 L 271 849 L 271 879.5 L 272.5 881 L 287 881 L 287 895.5 L 288.5 897 L 303 897 L 303 927.5 L 304.5 929 L 319 929 L 319 944 L 304 944 L 304 976 L 288 976 L 288 960 L 272 960 L 272 944 L 240 944 L 240 912.5 L 239.5 912 L 224 912 L 224 880 L 177.5 880 L 176 878.5 L 176 800 L 160 800 L 160 784 L 144 784 L 144 720.5 L 143.5 720 L 128 720 L 128 752 L 112 752 L 112 720 L 97.5 720 L 96 718.5 L 96 688 L 112 688 L 112 672 Z " /><path fill="rgb(54,52,75)" stroke="rgb(54,52,75)" stroke-width="1" opacity="1" d="M 369 832 L 384 832 L 384 847 L 369 847 L 369 832 Z " /><path fill="rgb(54,52,75)" stroke="rgb(54,52,75)" stroke-width="1" opacity="1" d="M 385 848 L 400 848 L 400 864 L 416 864 L 416 880 L 432 880 L 432 896 L 448 896 L 448 912 L 464 912 L 464 928 L 448 928 L 448 959 L 433 959 L 433 928.5 L 431.5 927 L 417 927 L 417 912.5 L 415.5 911 L 401 911 L 401 880.5 L 399.5 879 L 385 879 L 385 848 Z " /><path fill="rgb(25,21,31)" stroke="rgb(25,21,31)" stroke-width="1" opacity="1" d="M 448 320 L 464 320 L 464 352 L 416 352 L 416 336 L 448 336 L 448 320 Z " /><path fill="rgb(25,21,31)" stroke="rgb(25,21,31)" stroke-width="1" opacity="1" d="M 592 320 L 608 320 L 608 336 L 592 336 L 592 368 L 576 368 L 576 336 L 592 336 L 592 320 Z " /><path fill="rgb(25,21,31)" stroke="rgb(25,21,31)" stroke-width="1" opacity="1" d="M 384 336 L 400 336 L 400 383.5 L 400.5 384 L 416 384 L 416 416 L 384 416 L 384 336 Z " /><path fill="rgb(25,21,31)" stroke="rgb(25,21,31)" stroke-width="1" opacity="1" d="M 528 336 L 544 336 L 544 352 L 560 352 L 560 368 L 528 368 L 528 384 L 576 384 L 576 400 L 512 400 L 512 368 L 528 368 L 528 336 Z " /><path fill="rgb(25,21,31)" stroke="rgb(25,21,31)" stroke-width="1" opacity="1" d="M 688 352 L 704 352 L 704 368 L 688 368 L 688 352 Z " /><path fill="rgb(25,21,31)" stroke="rgb(25,21,31)" stroke-width="1" opacity="1" d="M 784 368 L 800 368 L 800 384 L 784 384 L 784 400 L 768 400 L 768 384 L 784 384 L 784 368 Z " /><path fill="rgb(25,21,31)" stroke="rgb(25,21,31)" stroke-width="1" opacity="1" d="M 272 400 L 288 400 L 288 432 L 272 432 L 272 400 Z " /><path fill="rgb(25,21,31)" stroke="rgb(25,21,31)" stroke-width="1" opacity="1" d="M 240 416 L 256 416 L 256 432 L 240 432 L 240 416 Z " /><path fill="rgb(25,21,31)" stroke="rgb(25,21,31)" stroke-width="1" opacity="1" d="M 224 448 L 240 448 L 240 464 L 256 464 L 256 480 L 240 480 L 240 464 L 224 464 L 224 448 Z " /><path fill="rgb(25,21,31)" stroke="rgb(25,21,31)" stroke-width="1" opacity="1" d="M 192 480 L 208 480 L 208 496 L 224 496 L 224 512 L 208 512 L 208 496 L 192 496 L 192 480 Z " /><path fill="rgb(25,21,31)" stroke="rgb(25,21,31)" stroke-width="1" opacity="1" d="M 368.5 816 L 384 816.5 L 368.5 817 L 368.5 816 Z " /><path fill="rgb(25,21,31)" stroke="rgb(25,21,31)" stroke-width="1" opacity="1" d="M 431.5 848 L 432 863.5 L 431 863.5 L 431.5 848 Z " /><path fill="rgb(89,32,54)" stroke="rgb(89,32,54)" stroke-width="1" opacity="1" d="M 80 496 L 159.5 496 L 160 496.5 L 160 512 L 176 512 L 176 526.5 L 177.5 528 L 192 528 L 192 640 L 255.5 640 L 256.5 639 L 271 639 L 271.5 625 L 272 640 L 256 640 L 256 655.5 L 255.5 656 L 208 656 L 208 672 L 240 672 L 240 688 L 208 688 L 208 784 L 224 784 L 224 800 L 240 800 L 240 816 L 256 816 L 256 832 L 288 832 L 288 864 L 304 864 L 304 880 L 320 880 L 320 912 L 336 912 L 336 928 L 352 928 L 352 944 L 368 944 L 368 960 L 416 960 L 416 928 L 400 928 L 400 912 L 384 912 L 384 880 L 368 880 L 368 848 L 352 848 L 352 816 L 336 816 L 336 800 L 351.5 800 L 352 799.5 L 352 736 L 336.5 736 L 336 735.5 L 336 657.5 L 337 657.5 L 337 704 L 352 704 L 352 720 L 367.5 720 L 368 720.5 L 368 800 L 352 800 L 352 816 L 368 816 L 368 831.5 L 369 832.5 L 369 847 L 383.5 847 L 385 848.5 L 385 879 L 399.5 879 L 401 880.5 L 401 911 L 415.5 911 L 417 912.5 L 417 927 L 431.5 927 L 433 928.5 L 433 959 L 446.5 959 L 448 960.5 L 448 992 L 400.5 992 L 400 992.5 L 400 1007.5 L 399.5 1008 L 336 1008 L 336 976 L 320.5 976 L 320 975.5 L 320 944.5 L 319 943.5 L 319 929 L 304.5 929 L 303 927.5 L 303 897 L 288.5 897 L 287 895.5 L 287 881 L 272.5 881 L 271 879.5 L 271 849 L 256.5 849 L 255 847.5 L 255 833 L 240.5 833 L 239 831.5 L 239 817 L 224.5 817 L 223 815.5 L 223 801 L 208.5 801 L 207 799.5 L 207 785 L 192.5 785 L 191 783.5 L 191 720.5 L 192 719.5 L 192 640 L 176.5 640 L 176 639.5 L 176 528 L 144 528 L 144 512 L 128 512 L 128 544 L 144 544 L 144 576 L 159.5 576 L 160 576.5 L 160 656 L 144.5 656 L 144 655.5 L 144 576.5 L 143.5 576 L 128 576 L 128 544 L 112 544 L 112 528 L 96 528 L 96 512 L 80 512 L 80 639.5 L 80.5 640 L 96 640 L 96 672 L 80 672 L 80 640 L 64.5 640 L 64 639.5 L 64 512 L 80 512 L 80 496 Z " /><path fill="rgb(89,32,54)" stroke="rgb(89,32,54)" stroke-width="1" opacity="1" d="M 608 544 L 624 544 L 624 607.5 L 624.5 608 L 640 608 L 640 624 L 608 624 L 608 544 Z " /><path fill="rgb(89,32,54)" stroke="rgb(89,32,54)" stroke-width="1" opacity="1" d="M 273.5 623 L 303 623.5 L 273.5 624 L 273.5 623 Z " /><path fill="rgb(89,32,54)" stroke="rgb(89,32,54)" stroke-width="1" opacity="1" d="M 304.5 625 L 305 639 L 319 639.5 L 304 640 L 304.5 625 Z " /><path fill="rgb(89,32,54)" stroke="rgb(89,32,54)" stroke-width="1" opacity="1" d="M 320.5 641 L 321 655 L 335 655.5 L 320 656 L 320.5 641 Z " /><path fill="rgb(89,32,54)" stroke="rgb(89,32,54)" stroke-width="1" opacity="1" d="M 752 720 L 784 720 L 784 736 L 752 736 L 752 720 Z " /><path fill="rgb(16,15,18)" stroke="rgb(16,15,18)" stroke-width="1" opacity="1" d="M 464 336 L 512 336 L 512 400 L 576 400 L 576 368.5 L 576.5 368 L 592 368 L 592 336 L 688 336 L 688 384 L 704 384 L 704 368 L 752 368 L 752 384 L 768 384 L 768 400 L 847.5 400 L 848 400.5 L 848 416 L 895.5 416 L 896 416.5 L 896 432 L 911.5 432 L 911 433.5 L 911 574.5 L 910.5 575 L 896.5 575 L 895 576.5 L 895 591 L 880.5 591 L 879 592.5 L 879 623 L 848.5 623 L 847 624.5 L 847 655 L 832.5 655 L 831 656.5 L 831 671 L 816.5 671 L 815 672.5 L 815 703 L 800.5 703 L 799 704.5 L 799 719 L 784.5 719 L 783.5 720 L 720 720 L 720 704 L 736 704 L 736 688 L 752 688 L 752 672 L 768 672 L 768 640 L 752 640 L 752 592 L 768 592 L 768 576 L 800 576 L 800 560 L 784 560 L 784 544 L 800 544 L 800 528 L 816 528 L 816 544 L 832 544 L 832 512 L 848 512 L 848 496 L 864 496 L 864 480 L 848 480 L 848 464 L 880 464 L 880 432 L 848 432 L 848 416.5 L 847.5 416 L 736 416 L 736 432 L 721 432 L 721 416 L 736 416 L 736 399.5 L 737.5 400 L 767 400 L 767 385 L 751 385 L 751 369.5 L 750.5 369 L 705 369 L 705 383.5 L 703.5 385 L 687 385 L 687 337 L 593 337 L 593 367.5 L 591.5 369 L 577 369 L 577 399.5 L 575.5 401 L 512.5 401 L 511 399.5 L 511 337 L 465.5 337 L 465 337.5 L 465 351.5 L 463.5 353 L 417 353 L 417 415.5 L 415.5 417 L 383 416.5 L 416 416 L 416 352 L 464 352 L 464 336 Z " /><path fill="rgb(16,15,18)" stroke="rgb(16,15,18)" stroke-width="1" opacity="1" d="M 304 352 L 383.5 352 L 384 352.5 L 384 367.5 L 383 367.5 L 383 353.5 L 382.5 353 L 305 353 L 305 433 L 273 433 L 273 447.5 L 271.5 449 L 257 449 L 257 510.5 L 257.5 511 L 271.5 511 L 273 512.5 L 273 527 L 287 527.5 L 272 528 L 272 512 L 256.5 512 L 256 511.5 L 256 448 L 272 448 L 272 432 L 304 432 L 304 352 Z " /><path fill="rgb(16,15,18)" stroke="rgb(16,15,18)" stroke-width="1" opacity="1" d="M 688 432 L 720 433 L 720 448 L 688 448 L 688 464 L 672 464 L 672 496 L 656 496 L 656 528 L 640 528 L 640 608 L 656 608 L 656 640 L 672 640 L 672 656 L 656.5 656 L 655.5 657 L 656 655.5 L 656 640 L 640.5 640 L 639 640.5 L 640 639.5 L 640 608 L 624.5 608 L 624 607.5 L 624 527.5 L 625.5 528 L 638.5 528 L 640 526.5 L 640 497.5 L 641 496.5 L 641 480 L 656 480 L 656 464 L 672 464 L 672 447.5 L 673.5 448 L 686.5 448 L 688 446.5 L 688 432 Z " /><path fill="rgb(16,15,18)" stroke="rgb(16,15,18)" stroke-width="1" opacity="1" d="M 335.5 495 L 336 512 L 319 511.5 L 335 511 L 335.5 495 Z " /><path fill="rgb(16,15,18)" stroke="rgb(16,15,18)" stroke-width="1" opacity="1" d="M 352.5 495 L 368 495.5 L 352.5 496 L 352.5 495 Z " /><path fill="rgb(16,15,18)" stroke="rgb(16,15,18)" stroke-width="1" opacity="1" d="M 543.5 495 L 544.5 497 L 543.5 495 Z " /><path fill="rgb(16,15,18)" stroke="rgb(16,15,18)" stroke-width="1" opacity="1" d="M 560.5 495 L 559.5 497 L 560.5 495 Z " /><path fill="rgb(16,15,18)" stroke="rgb(16,15,18)" stroke-width="1" opacity="1" d="M 384.5 496 L 385 511 L 401 511.5 L 384 512 L 384.5 496 Z " /><path fill="rgb(16,15,18)" stroke="rgb(16,15,18)" stroke-width="1" opacity="1" d="M 416.5 592 L 417 607 L 481 607.5 L 416 608 L 416.5 592 Z " /><path fill="rgb(16,15,18)" stroke="rgb(16,15,18)" stroke-width="1" opacity="1" d="M 496.5 623 L 512 623.5 L 496.5 624 L 496.5 623 Z " /><path fill="rgb(16,15,18)" stroke="rgb(16,15,18)" stroke-width="1" opacity="1" d="M 639.5 655 L 640.5 657 L 639.5 655 Z " /><path fill="rgb(16,15,18)" stroke="rgb(16,15,18)" stroke-width="1" opacity="1" d="M 672 672 L 688 672 L 688 688 L 704 688 L 704 704 L 688.5 704 L 687.5 705 L 688 703.5 L 688 688 L 673.5 688 L 672 686.5 L 672 672 Z " /><path fill="rgb(16,15,18)" stroke="rgb(16,15,18)" stroke-width="1" opacity="1" d="M 496 720 L 513 720.5 L 497 721 L 496.5 737 L 496 720 Z " /><path fill="rgb(16,15,18)" stroke="rgb(16,15,18)" stroke-width="1" opacity="1" d="M 672.5 735 L 688 735.5 L 672.5 736 L 672.5 735 Z " /><path fill="rgb(16,15,18)" stroke="rgb(16,15,18)" stroke-width="1" opacity="1" d="M 384 752 L 400 752.5 L 385 753 L 384.5 769 L 384 752 Z " /><path fill="rgb(16,15,18)" stroke="rgb(16,15,18)" stroke-width="1" opacity="1" d="M 432.5 752 L 448 752.5 L 432.5 753 L 432.5 752 Z " /><path fill="rgb(16,15,18)" stroke="rgb(16,15,18)" stroke-width="1" opacity="1" d="M 575.5 767 L 576 784 L 560 783.5 L 575 783 L 575.5 767 Z " /><path fill="rgb(16,15,18)" stroke="rgb(16,15,18)" stroke-width="1" opacity="1" d="M 608.5 767 L 624 767.5 L 608.5 768 L 608.5 767 Z " /><path fill="rgb(16,15,18)" stroke="rgb(16,15,18)" stroke-width="1" opacity="1" d="M 527.5 800 L 528 815.5 L 527 815.5 L 527.5 800 Z " /><path fill="rgb(16,15,18)" stroke="rgb(16,15,18)" stroke-width="1" opacity="1" d="M 384.5 817 L 385 831 L 400 831.5 L 384 832 L 384.5 817 Z " /><path fill="rgb(16,15,18)" stroke="rgb(16,15,18)" stroke-width="1" opacity="1" d="M 416.5 831 L 417 847 L 431 847.5 L 416 848 L 416.5 831 Z " /><path fill="rgb(16,15,18)" stroke="rgb(16,15,18)" stroke-width="1" opacity="1" d="M 479.5 879 L 480 912 L 464 912 L 464 895.5 L 465 895.5 L 465 911 L 479 911 L 479.5 879 Z " /><path fill="rgb(227,106,87)" stroke="rgb(227,106,87)" stroke-width="1" opacity="1" d="M 32 272 L 48 272 L 48 288 L 64 288 L 64 320 L 32 320 L 32 352 L 16 352 L 16 304.5 L 16.5 304 L 32 304 L 32 272 Z " /><path fill="rgb(227,106,87)" stroke="rgb(227,106,87)" stroke-width="1" opacity="1" d="M 1008 304 L 1023.5 304 L 1024 304.5 L 1024 384 L 992 384 L 992 368 L 1007.5 368 L 1008 367.5 L 1008 304 Z " /><path fill="rgb(227,106,87)" stroke="rgb(227,106,87)" stroke-width="1" opacity="1" d="M 48 352 L 80 352 L 80 384 L 64 384 L 64 416 L 16 416 L 16 384 L 48 384 L 48 352 Z " /><path fill="rgb(227,106,87)" stroke="rgb(227,106,87)" stroke-width="1" opacity="1" d="M 960 384 L 976 384 L 976 400 L 992 400 L 992 416 L 1008 416 L 1008 448 L 976 448 L 976 416.5 L 975.5 416 L 960 416 L 960 384 Z " /><path fill="rgb(227,106,87)" stroke="rgb(227,106,87)" stroke-width="1" opacity="1" d="M 337 385 L 351 385 L 351 399 L 337 399 L 337 385 Z " /><path fill="rgb(227,106,87)" stroke="rgb(227,106,87)" stroke-width="1" opacity="1" d="M 705 417 L 719 417 L 719 431 L 705 431 L 705 417 Z " /><path fill="rgb(227,106,87)" stroke="rgb(227,106,87)" stroke-width="1" opacity="1" d="M 321 433 L 335 433 L 335 447 L 321 447 L 321 433 Z " /><path fill="rgb(227,106,87)" stroke="rgb(227,106,87)" stroke-width="1" opacity="1" d="M 32 448 L 64 448 L 64 480 L 80 480 L 80 496 L 64 496 L 64 512 L 48 512 L 48 496 L 64 496 L 64 480 L 48 480 L 48 464 L 32 464 L 32 575.5 L 32.5 576 L 47.5 576 L 48 576.5 L 48 655.5 L 48.5 656 L 63.5 656 L 64 656.5 L 64 736 L 80 736 L 80 768 L 96 768 L 96 816 L 112 816 L 112 832 L 128 832 L 128 848 L 144 848 L 144 896 L 160 896 L 160 912 L 176 912 L 176 944 L 192 944 L 192 960 L 208 960 L 208 976 L 224 976 L 224 992 L 240 992 L 240 1008 L 192.5 1008 L 192 1007.5 L 192 992 L 160 992 L 160 976 L 144 976 L 144 960 L 128 960 L 128 928 L 112 928 L 112 1007.5 L 111.5 1008 L 96 1008 L 96 992 L 80.5 992 L 80 991.5 L 80 928.5 L 79.5 928 L 64.5 928 L 64 927.5 L 64 880 L 48.5 880 L 48 879.5 L 48 816.5 L 47.5 816 L 32.5 816 L 32 815.5 L 32 720.5 L 31.5 720 L 16.5 720 L 16 719.5 L 16 672 L 32 672 L 32 624 L 16 624 L 16 608 L 32 608 L 32 592 L 16.5 592 L 16 591.5 L 16 464 L 32 464 L 32 448 Z M 32 672 L 32 720 L 48 720 L 48 672 L 32 672 Z M 48 752 L 48 800 L 64 800 L 64 752 L 48 752 Z M 64 800 L 64 848 L 80 848 L 80 864 L 96 864 L 96 832 L 81 832 L 80 832 L 80 800 L 64 800 Z M 96 880 L 96 928 L 112 928 L 112 880 L 96 880 Z " /><path fill="rgb(227,106,87)" stroke="rgb(227,106,87)" stroke-width="1" opacity="1" d="M 944 448 L 960 448 L 960 480 L 992 480 L 992 512 L 1024 512 L 1024 528 L 960 528 L 960 512 L 944 512 L 944 480 L 928 480 L 928 464 L 944 464 L 944 448 Z " /><path fill="rgb(227,106,87)" stroke="rgb(227,106,87)" stroke-width="1" opacity="1" d="M 289 465 L 303 465 L 303 479 L 289 479 L 289 465 Z " /><path fill="rgb(227,106,87)" stroke="rgb(227,106,87)" stroke-width="1" opacity="1" d="M 449 481 L 463 481 L 463 495 L 449 495 L 449 481 Z " /><path fill="rgb(227,106,87)" stroke="rgb(227,106,87)" stroke-width="1" opacity="1" d="M 625 481 L 639 481 L 639 495 L 625 495 L 625 481 Z " /><path fill="rgb(227,106,87)" stroke="rgb(227,106,87)" stroke-width="1" opacity="1" d="M 289 529 L 303 529 L 303 543 L 289 543 L 289 529 Z " /><path fill="rgb(227,106,87)" stroke="rgb(227,106,87)" stroke-width="1" opacity="1" d="M 417 545 L 431 545 L 431 559 L 417 559 L 417 545 Z " /><path fill="rgb(227,106,87)" stroke="rgb(227,106,87)" stroke-width="1" opacity="1" d="M 928 560 L 944 560 L 944 575.5 L 944.5 576 L 992 576 L 992 656 L 976 656 L 976 672 L 960 672 L 960 704 L 944 704 L 944 736 L 928 736 L 928 752 L 944 752 L 944 768 L 912 768 L 912 784 L 928 784 L 928 800 L 896 800 L 896 848 L 880 848 L 880 880 L 864 880 L 864 912 L 848.5 912 L 848 912.5 L 848 976 L 895.5 976 L 896 975.5 L 896 960 L 912 960 L 912 896.5 L 912.5 896 L 927.5 896 L 928 895.5 L 928 832.5 L 928.5 832 L 943.5 832 L 944 831.5 L 944 784 L 960 784 L 960 752 L 976 752 L 976 720 L 992 720 L 992 688 L 1008 688 L 1008 799.5 L 1007.5 800 L 992.5 800 L 992 800.5 L 992 863.5 L 991.5 864 L 976 864 L 976 896 L 992 896 L 992 912 L 976 912 L 976 944 L 960 944 L 960 992 L 1007.5 992 L 1008 991.5 L 1008 976 L 1024 976 L 1024 992 L 1008 992 L 1008 1008 L 944 1008 L 944 960 L 928 960 L 928 976 L 912 976 L 912 992 L 896 992 L 896 1008 L 864 1008 L 864 992 L 848 992 L 848 1008 L 800 1008 L 800 976.5 L 800.5 976 L 816 976 L 816 944 L 800 944 L 800 960 L 784 960 L 784 976 L 752 976 L 752 992 L 736 992 L 736 1008 L 672 1008 L 672 992 L 688 992 L 688 976 L 704 976 L 704 960 L 720 960 L 720 944 L 736 944 L 736 928 L 752 928 L 752 896 L 720 896 L 720 928 L 704 928 L 704 944 L 672 944 L 672 960 L 656 960 L 656 976 L 640 976 L 640 992 L 608 992 L 608 1008 L 592 1008 L 592 992 L 576 992 L 576 976 L 544 976 L 544 992 L 528 992 L 528 1008 L 464 1008 L 464 992 L 496 992 L 496 976 L 512 976 L 512 960 L 543.5 960 L 544 959.5 L 544 944 L 576 944 L 576 928 L 592 928 L 592 912 L 608 912 L 608 896 L 624 896 L 624 880 L 640 880 L 640 864 L 672 864 L 672 848 L 688 848 L 688 832 L 704 832 L 704 816 L 720 816 L 720 800 L 736 800 L 736 784 L 752 784 L 752 768 L 768 768 L 768 752 L 784 752 L 784 736 L 800 736 L 800 720 L 816 720 L 816 704 L 832 704 L 832 688 L 848 688 L 848 672 L 864 672 L 864 640 L 880 640 L 880 624 L 896 624 L 896 608 L 912 608 L 912 592 L 928 592 L 928 560 Z M 960 592 L 960 608 L 944 608 L 944 640 L 928 640 L 928 656 L 912 656 L 912 672 L 896 672 L 896 704 L 881 704 L 880 705 L 880 736 L 832 736 L 832 752 L 816 752 L 816 784 L 800 784 L 800 800 L 784 800 L 784 816 L 752 816 L 752 864 L 784 864 L 784 880 L 816 880 L 816 848 L 832 848 L 832 832 L 848 832 L 848 816 L 864 816 L 864 784 L 880 784 L 880 784 L 880 752 L 896 752 L 896 736 L 912 736 L 912 720 L 928 720 L 928 688 L 944 688 L 944 672 L 960 672 L 960 672 L 960 624 L 976 624 L 976 592 L 960 592 Z M 720 832 L 720 848 L 736 848 L 736 832 L 720 832 Z M 704 848 L 704 880 L 720 880 L 720 848 L 704 848 Z M 672 880 L 672 912 L 688 912 L 688 896 L 704 896 L 704 880 L 672 880 Z M 752 880 L 752 896 L 768 896 L 768 880 L 752 880 Z M 624 912 L 624 928 L 608 928 L 608 944 L 640 944 L 640 928 L 656 928 L 656 912 L 624 912 Z M 576 944 L 576 976 L 592 976 L 592 960 L 608 960 L 608 944 L 576 944 Z " /><path fill="rgb(227,106,87)" stroke="rgb(227,106,87)" stroke-width="1" opacity="1" d="M 593 609 L 607 609 L 607 623 L 593 623 L 593 609 Z " /><path fill="rgb(227,106,87)" stroke="rgb(227,106,87)" stroke-width="1" opacity="1" d="M 273 625 L 303 625 L 303 641 L 319 641 L 319 657 L 335 657 L 335 719.5 L 336 720.5 L 336 768 L 320 768 L 320 784 L 304 784 L 304 800 L 272 800 L 272 784 L 256 784 L 256 768 L 240.5 768 L 240 767.5 L 240 672.5 L 241 671.5 L 241 657 L 257 657 L 257 641 L 273 641 L 273 625 Z " /><path fill="rgb(227,106,87)" stroke="rgb(227,106,87)" stroke-width="1" opacity="1" d="M 593 673 L 607 673 L 607 687 L 593 687 L 593 673 Z " /><path fill="rgb(227,106,87)" stroke="rgb(227,106,87)" stroke-width="1" opacity="1" d="M 657 689 L 671 689 L 671 703 L 657 703 L 657 689 Z " /><path fill="rgb(227,106,87)" stroke="rgb(227,106,87)" stroke-width="1" opacity="1" d="M 577 721 L 591 721 L 591 735 L 577 735 L 577 721 Z " /><path fill="rgb(227,106,87)" stroke="rgb(227,106,87)" stroke-width="1" opacity="1" d="M 625 737 L 639 737 L 639 751 L 625 751 L 625 737 Z " /><path fill="rgb(227,106,87)" stroke="rgb(227,106,87)" stroke-width="1" opacity="1" d="M 513 753 L 527 753 L 527 767 L 513 767 L 513 753 Z " /><path fill="rgb(227,106,87)" stroke="rgb(227,106,87)" stroke-width="1" opacity="1" d="M 401 769 L 415 769 L 415 783 L 401 783 L 401 769 Z " /><path fill="rgb(227,106,87)" stroke="rgb(227,106,87)" stroke-width="1" opacity="1" d="M 465 769 L 479 769 L 479 783 L 465 783 L 465 769 Z " /><path fill="rgb(227,106,87)" stroke="rgb(227,106,87)" stroke-width="1" opacity="1" d="M 369 801 L 383 801 L 383 815 L 369 815 L 369 801 Z " /><path fill="rgb(227,106,87)" stroke="rgb(227,106,87)" stroke-width="1" opacity="1" d="M 401 801 L 415 801 L 415 815 L 401 815 L 401 801 Z " /><path fill="rgb(227,106,87)" stroke="rgb(227,106,87)" stroke-width="1" opacity="1" d="M 481 833 L 495 833 L 495 847 L 481 847 L 481 833 Z " /><path fill="rgb(227,106,87)" stroke="rgb(227,106,87)" stroke-width="1" opacity="1" d="M 433 849 L 447 849 L 447 863 L 433 863 L 433 849 Z " /><path fill="rgb(41,35,52)" stroke="rgb(41,35,52)" stroke-width="1" opacity="1" d="M 848.5 415 L 848 416.5 L 848 432 L 880 432 L 880 464 L 848 464 L 848 480 L 864 480 L 864 496 L 848 496 L 848 512 L 832 512 L 832 544 L 816 544 L 816 528 L 800 528 L 800 544 L 784 544 L 784 560 L 800 560 L 800 576 L 768 576 L 768 592 L 752 592 L 752 640 L 768 640 L 768 672 L 752 672 L 752 688 L 736 688 L 736 704 L 704 704 L 704 688 L 688 688 L 688 672 L 672 672 L 672 640.5 L 671.5 640 L 656 640 L 656 608 L 640 608 L 640 528 L 656 528 L 656 496.5 L 656.5 496 L 672 496 L 672 464 L 688 464 L 688 448 L 720 448 L 720 432 L 736 432 L 736 416 L 847.5 416 L 848.5 415 Z M 752 432 L 752 448 L 768 448 L 768 432 L 752 432 Z M 784 432 L 784 448 L 800 448 L 800 432 L 784 432 Z M 720 448 L 720 464 L 752 464 L 752 448 L 720 448 Z M 704 464 L 704 480 L 720 480 L 720 464 L 704 464 Z M 688 480 L 688 496 L 673 496 L 672 497 L 672 544 L 657 544 L 656 545 L 656 608 L 672 608 L 672 560 L 688 560 L 688 512 L 704 512 L 704 480 L 688 480 Z " /><path fill="rgb(41,35,52)" stroke="rgb(41,35,52)" stroke-width="1" opacity="1" d="M 255.5 495 L 256 512 L 272 512 L 272 528 L 288 528 L 288 560 L 320 560 L 320 512 L 336 512 L 336 496.5 L 336.5 496 L 384 496 L 384 512 L 399.5 512 L 400 512.5 L 400 575.5 L 400.5 576 L 416 576 L 416 608 L 479.5 608 L 480 608.5 L 480 624 L 512 624 L 512 640 L 527.5 640 L 528 640.5 L 528 688 L 512 688 L 512 720 L 496 720 L 496 736 L 448.5 736 L 448 736.5 L 448 751.5 L 447.5 752 L 384.5 752 L 384 752.5 L 384 768 L 368 768 L 368 752 L 384 752 L 384 736 L 431.5 736 L 432 735.5 L 432 720 L 448 720 L 448 672 L 432 672 L 432 624 L 416 624 L 416 608 L 400 608 L 400 576 L 384 576 L 384 528 L 368 528 L 368 512 L 352 512 L 352 528 L 336.5 528 L 336 528.5 L 336 592 L 320 592 L 320 576 L 288 576 L 288 592 L 272 592 L 272 544 L 256 544 L 256 512 L 240 512 L 240 528 L 224.5 528 L 224 528.5 L 224 576 L 208.5 576 L 208 576.5 L 208 640 L 192.5 640 L 192 640.5 L 192 719.5 L 191.5 720 L 176 720 L 176 688 L 160 688 L 160 672 L 112 672 L 112 688 L 96 688 L 96 718.5 L 97.5 720 L 112 720 L 112 752 L 128 752 L 128 720 L 144 720 L 144 784 L 160 784 L 160 800 L 175.5 800 L 176 800.5 L 176 878.5 L 177.5 880 L 224 880 L 224 911.5 L 224.5 912 L 240 912 L 240 944 L 272 944 L 272 960 L 288 960 L 288 976 L 304 976 L 304 944 L 320 944 L 320 975.5 L 320.5 976 L 336 976 L 336 1008 L 320 1008 L 320 1024 L 288 1024 L 288 1008 L 273.5 1008 L 272 1006.5 L 272 992 L 257.5 992 L 256 990.5 L 256 976 L 241.5 976 L 240 974.5 L 240 960 L 225.5 960 L 224 958.5 L 224 944 L 209.5 944 L 208 942.5 L 208 928 L 193.5 928 L 192 926.5 L 192 896 L 177.5 896 L 176 894.5 L 176 880 L 161.5 880 L 160 878.5 L 160 848 L 145.5 848 L 144 846.5 L 144 832 L 129.5 832 L 128 830.5 L 128 800 L 113.5 800 L 112 798.5 L 112 768 L 97.5 768 L 96 766.5 L 96 720.5 L 95.5 720 L 81.5 720 L 80 718.5 L 80 672 L 112 672 L 112 656.5 L 112.5 656 L 175.5 656 L 176 655.5 L 176 640 L 192 640 L 192 544 L 208 544 L 208 528 L 224 528 L 224 496 L 254.5 496 L 255.5 495 Z M 448 624 L 448 672 L 449 672 L 464 672 L 464 673 L 464 720 L 496 720 L 496 688 L 512 688 L 512 656 L 496 656 L 496 640 L 480 640 L 480 624 L 448 624 Z " /><path fill="rgb(41,35,52)" stroke="rgb(41,35,52)" stroke-width="1" opacity="1" d="M 368 817 L 384 817 L 384 831.5 L 384.5 832 L 416 832 L 416 848 L 431 848 L 431 863.5 L 432 864.5 L 432 880 L 448 880 L 448 896 L 464 896 L 464 912 L 448 912 L 448 896 L 432 896 L 432 880 L 416 880 L 416 864 L 400 864 L 400 848 L 384 848 L 384 832 L 368 832 L 368 817 Z " /><path fill="rgb(12,11,13)" stroke="rgb(12,11,13)" stroke-width="1" opacity="1" d="M 464 352 L 495.5 352 L 496 352.5 L 496 480 L 448 480 L 448 416.5 L 447.5 416 L 432.5 416 L 432 415.5 L 432 368 L 464 368 L 464 352 Z M 464 384 L 464 400 L 480 400 L 480 384 L 464 384 Z M 464 432 L 464 448 L 480 448 L 480 432 L 464 432 Z " /><path fill="rgb(12,11,13)" stroke="rgb(12,11,13)" stroke-width="1" opacity="1" d="M 608 352 L 672 352 L 672 464 L 656 464 L 656 479.5 L 655.5 480 L 592 480 L 592 368.5 L 592.5 368 L 608 368 L 608 352 Z M 608 384 L 608 400 L 624 400 L 624 384 L 608 384 Z M 640 384 L 640 400 L 656 400 L 656 384 L 640 384 Z M 608 432 L 608 448 L 624 448 L 624 432 L 608 432 Z M 640 432 L 640 448 L 656 448 L 656 432 L 640 432 Z " /><path fill="rgb(12,11,13)" stroke="rgb(12,11,13)" stroke-width="1" opacity="1" d="M 320 368 L 384 368 L 384 416 L 352 416 L 352 495.5 L 351.5 496 L 336 496 L 336 432.5 L 335.5 432 L 320.5 432 L 320 431.5 L 320 368 Z M 336 384 L 336 400 L 352 400 L 352 384 L 336 384 Z " /><path fill="rgb(12,11,13)" stroke="rgb(12,11,13)" stroke-width="1" opacity="1" d="M 704 384 L 736 384 L 736 416 L 704 416 L 704 432 L 688 432 L 688 400 L 704 400 L 704 384 Z " /><path fill="rgb(12,11,13)" stroke="rgb(12,11,13)" stroke-width="1" opacity="1" d="M 512 416 L 576 416 L 576 480 L 560 480 L 560 496 L 608 496 L 608 512 L 624 512 L 624 527 L 608.5 527 L 607 528.5 L 607 543 L 593.5 543 L 591 545.5 L 591 606.5 L 592 607.5 L 592 624 L 640 625 L 640 640 L 656 640 L 656 656 L 672 656 L 672 688 L 688 688 L 688 704 L 720 704 L 720 720 L 703 720 L 703 736 L 688 736 L 688 704 L 672 704 L 672 688 L 656 688 L 656 656 L 640 656 L 640 704 L 608.5 704 L 608 704.5 L 608 768 L 576 768 L 576 736 L 592 736 L 592 720 L 576.5 720 L 576 719.5 L 576 656 L 639.5 656 L 640 655.5 L 640 640 L 576 640 L 576 560.5 L 575.5 560 L 560.5 560 L 560 559.5 L 560 496 L 544 496 L 544 528 L 528 528 L 528 544 L 544 544 L 544 560 L 496 560 L 496 576 L 480 576 L 480 592 L 464 592 L 464 496 L 543.5 496 L 544 495.5 L 544 480 L 512 480 L 512 448 L 528 448 L 528 432 L 512 432 L 512 416 Z M 544 464 L 544 480 L 560 480 L 560 464 L 544 464 Z M 480 528 L 480 544 L 496 544 L 496 528 L 480 528 Z M 576 528 L 576 544 L 592 544 L 592 528 L 576 528 Z M 592 672 L 592 688 L 608 688 L 608 672 L 592 672 Z " /><path fill="rgb(12,11,13)" stroke="rgb(12,11,13)" stroke-width="1" opacity="1" d="M 368 432 L 432 432 L 432 496 L 368.5 496 L 368 495.5 L 368 480 L 384 480 L 384 464 L 368 464 L 368 432 Z M 400 448 L 400 464 L 416 464 L 416 448 L 400 448 Z " /><path fill="rgb(12,11,13)" stroke="rgb(12,11,13)" stroke-width="1" opacity="1" d="M 272 448 L 320 448 L 320 496 L 288 496 L 288 512 L 272 512 L 272 448 Z M 288 464 L 288 480 L 304 480 L 304 464 L 288 464 Z " /><path fill="rgb(12,11,13)" stroke="rgb(12,11,13)" stroke-width="1" opacity="1" d="M 304 512 L 320 512 L 320 560 L 288 560 L 288 544 L 304 544 L 304 512 Z " /><path fill="rgb(12,11,13)" stroke="rgb(12,11,13)" stroke-width="1" opacity="1" d="M 400 512 L 448 512 L 448 592 L 416 592 L 416 576 L 400 576 L 400 512 Z M 416 544 L 416 560 L 432 560 L 432 544 L 416 544 Z " /><path fill="rgb(12,11,13)" stroke="rgb(12,11,13)" stroke-width="1" opacity="1" d="M 512 576 L 560 576 L 560 720 L 544 720 L 544 704 L 528 704 L 528 720 L 512 720 L 512 688 L 528 688 L 528 672 L 544 672 L 544 656 L 528 656 L 528 640 L 512 640 L 512 576 Z M 528 608 L 528 624 L 544 624 L 544 608 L 528 608 Z " /><path fill="rgb(12,11,13)" stroke="rgb(12,11,13)" stroke-width="1" opacity="1" d="M 480 608 L 496 608 L 496 624 L 480 624 L 480 608 Z " /><path fill="rgb(12,11,13)" stroke="rgb(12,11,13)" stroke-width="1" opacity="1" d="M 384 624 L 400 624 L 400 656 L 384 656 L 384 624 Z " /><path fill="rgb(12,11,13)" stroke="rgb(12,11,13)" stroke-width="1" opacity="1" d="M 624 720 L 672 720 L 672 736 L 656 736 L 656 768 L 624 768 L 624 752 L 640 752 L 640 736 L 624 736 L 624 720 Z " /><path fill="rgb(12,11,13)" stroke="rgb(12,11,13)" stroke-width="1" opacity="1" d="M 448 736 L 496 736 L 496 800 L 464 800 L 464 816 L 448 816 L 448 736 Z M 464 768 L 464 784 L 480 784 L 480 768 L 464 768 Z " /><path fill="rgb(12,11,13)" stroke="rgb(12,11,13)" stroke-width="1" opacity="1" d="M 512 736 L 560 736 L 560 784 L 544 784 L 544 800 L 512 800 L 512 768 L 528 768 L 528 752 L 512 752 L 512 736 Z " /><path fill="rgb(12,11,13)" stroke="rgb(12,11,13)" stroke-width="1" opacity="1" d="M 400 752 L 432 752 L 432 816 L 416 816 L 416 832 L 400 832 L 400 816 L 416 816 L 416 800 L 400 800 L 400 784 L 416 784 L 416 768 L 400 768 L 400 752 Z " /><path fill="rgb(12,11,13)" stroke="rgb(12,11,13)" stroke-width="1" opacity="1" d="M 369 768 L 384 768 L 384 800 L 368 800 L 368 815.5 L 366.5 815 L 353 815 L 353 801 L 366.5 801 L 369 798.5 L 369 768 Z " /><path fill="rgb(12,11,13)" stroke="rgb(12,11,13)" stroke-width="1" opacity="1" d="M 480 816 L 528 816 L 528 832 L 512 832 L 512 848 L 496 848 L 496 880 L 480 880 L 480 848 L 496 848 L 496 832 L 480 832 L 480 816 Z " /><path fill="rgb(12,11,13)" stroke="rgb(12,11,13)" stroke-width="1" opacity="1" d="M 432 832 L 464 832 L 464 896 L 449.5 896 L 448 894.5 L 448 880 L 433.5 880 L 432 878.5 L 432 864 L 448 864 L 448 848 L 432 848 L 432 832 Z " /><path fill="rgb(254,228,192)" stroke="rgb(254,228,192)" stroke-width="1" opacity="1" d="M 336 384 L 352 384 L 352 400 L 336 400 L 336 384 Z M 337 385 L 337 399 L 351 399 L 351 385 L 337 385 Z " /><path fill="rgb(254,228,192)" stroke="rgb(254,228,192)" stroke-width="1" opacity="1" d="M 464 384 L 480 384 L 480 400 L 464 400 L 464 384 Z " /><path fill="rgb(254,228,192)" stroke="rgb(254,228,192)" stroke-width="1" opacity="1" d="M 608 384 L 624 384 L 624 400 L 608 400 L 608 384 Z " /><path fill="rgb(254,228,192)" stroke="rgb(254,228,192)" stroke-width="1" opacity="1" d="M 640 384 L 656 384 L 656 400 L 640 400 L 640 384 Z " /><path fill="rgb(254,228,192)" stroke="rgb(254,228,192)" stroke-width="1" opacity="1" d="M 704 416 L 720 416 L 720 432 L 704 432 L 704 416 Z M 705 417 L 705 431 L 719 431 L 719 417 L 705 417 Z " /><path fill="rgb(254,228,192)" stroke="rgb(254,228,192)" stroke-width="1" opacity="1" d="M 320 432 L 336 432 L 336 448 L 320 448 L 320 432 Z M 321 433 L 321 447 L 335 447 L 335 433 L 321 433 Z " /><path fill="rgb(254,228,192)" stroke="rgb(254,228,192)" stroke-width="1" opacity="1" d="M 464 432 L 480 432 L 480 448 L 464 448 L 464 432 Z " /><path fill="rgb(254,228,192)" stroke="rgb(254,228,192)" stroke-width="1" opacity="1" d="M 512 432 L 528 432 L 528 448 L 512 448 L 512 432 Z " /><path fill="rgb(254,228,192)" stroke="rgb(254,228,192)" stroke-width="1" opacity="1" d="M 608 432 L 624 432 L 624 448 L 608 448 L 608 432 Z " /><path fill="rgb(254,228,192)" stroke="rgb(254,228,192)" stroke-width="1" opacity="1" d="M 640 432 L 656 432 L 656 448 L 640 448 L 640 432 Z " /><path fill="rgb(254,228,192)" stroke="rgb(254,228,192)" stroke-width="1" opacity="1" d="M 400 448 L 416 448 L 416 464 L 400 464 L 400 448 Z " /><path fill="rgb(254,228,192)" stroke="rgb(254,228,192)" stroke-width="1" opacity="1" d="M 288 464 L 304 464 L 304 480 L 288 480 L 288 464 Z M 289 465 L 289 479 L 303 479 L 303 465 L 289 465 Z " /><path fill="rgb(254,228,192)" stroke="rgb(254,228,192)" stroke-width="1" opacity="1" d="M 368 464 L 384 464 L 384 480 L 368 480 L 368 464 Z " /><path fill="rgb(254,228,192)" stroke="rgb(254,228,192)" stroke-width="1" opacity="1" d="M 544 464 L 560 464 L 560 480 L 544 480 L 544 464 Z " /><path fill="rgb(254,228,192)" stroke="rgb(254,228,192)" stroke-width="1" opacity="1" d="M 448 480 L 464 480 L 464 496 L 448 496 L 448 480 Z M 449 481 L 449 495 L 463 495 L 463 481 L 449 481 Z " /><path fill="rgb(254,228,192)" stroke="rgb(254,228,192)" stroke-width="1" opacity="1" d="M 624 480 L 640 480 L 640 496 L 624 496 L 624 480 Z M 625 481 L 625 495 L 639 495 L 639 481 L 625 481 Z " /><path fill="rgb(254,228,192)" stroke="rgb(254,228,192)" stroke-width="1" opacity="1" d="M 288 528 L 304 528 L 304 544 L 288 544 L 288 528 Z M 289 529 L 289 543 L 303 543 L 303 529 L 289 529 Z " /><path fill="rgb(254,228,192)" stroke="rgb(254,228,192)" stroke-width="1" opacity="1" d="M 480 528 L 496 528 L 496 544 L 480 544 L 480 528 Z " /><path fill="rgb(254,228,192)" stroke="rgb(254,228,192)" stroke-width="1" opacity="1" d="M 528 528 L 544 528 L 544 544 L 528 544 L 528 528 Z " /><path fill="rgb(254,228,192)" stroke="rgb(254,228,192)" stroke-width="1" opacity="1" d="M 576 528 L 592 528 L 592 544 L 576 544 L 576 528 Z " /><path fill="rgb(254,228,192)" stroke="rgb(254,228,192)" stroke-width="1" opacity="1" d="M 416 544 L 432 544 L 432 560 L 416 560 L 416 544 Z M 417 545 L 417 559 L 431 559 L 431 545 L 417 545 Z " /><path fill="rgb(254,228,192)" stroke="rgb(254,228,192)" stroke-width="1" opacity="1" d="M 480 576 L 496 576 L 496 592 L 480 592 L 480 576 Z " /><path fill="rgb(254,228,192)" stroke="rgb(254,228,192)" stroke-width="1" opacity="1" d="M 528 608 L 544 608 L 544 624 L 528 624 L 528 608 Z " /><path fill="rgb(254,228,192)" stroke="rgb(254,228,192)" stroke-width="1" opacity="1" d="M 592 608 L 608 608 L 608 624 L 592 624 L 592 608 Z M 593 609 L 593 623 L 607 623 L 607 609 L 593 609 Z " /><path fill="rgb(254,228,192)" stroke="rgb(254,228,192)" stroke-width="1" opacity="1" d="M 272 624 L 304 624 L 304 640 L 320 640 L 320 656 L 336 656 L 336 719.5 L 335 719.5 L 335 657 L 319 657 L 319 641 L 303 641 L 303 625 L 273 625 L 273 641 L 257 641 L 257 657 L 241 657 L 241 671.5 L 240 671.5 L 240 656 L 256 656 L 256 640 L 272 640 L 272 624 Z " /><path fill="rgb(254,228,192)" stroke="rgb(254,228,192)" stroke-width="1" opacity="1" d="M 528 656 L 544 656 L 544 672 L 528 672 L 528 656 Z " /><path fill="rgb(254,228,192)" stroke="rgb(254,228,192)" stroke-width="1" opacity="1" d="M 592 672 L 608 672 L 608 688 L 592 688 L 592 672 Z M 593 673 L 593 687 L 607 687 L 607 673 L 593 673 Z " /><path fill="rgb(254,228,192)" stroke="rgb(254,228,192)" stroke-width="1" opacity="1" d="M 656 688 L 672 688 L 672 704 L 656 704 L 656 688 Z M 657 689 L 657 703 L 671 703 L 671 689 L 657 689 Z " /><path fill="rgb(254,228,192)" stroke="rgb(254,228,192)" stroke-width="1" opacity="1" d="M 528 704 L 544 704 L 544 720 L 528 720 L 528 704 Z " /><path fill="rgb(254,228,192)" stroke="rgb(254,228,192)" stroke-width="1" opacity="1" d="M 576 720 L 592 720 L 592 736 L 576 736 L 576 720 Z M 577 721 L 577 735 L 591 735 L 591 721 L 577 721 Z " /><path fill="rgb(254,228,192)" stroke="rgb(254,228,192)" stroke-width="1" opacity="1" d="M 624 736 L 640 736 L 640 752 L 624 752 L 624 736 Z M 625 737 L 625 751 L 639 751 L 639 737 L 625 737 Z " /><path fill="rgb(254,228,192)" stroke="rgb(254,228,192)" stroke-width="1" opacity="1" d="M 512 752 L 528 752 L 528 768 L 512 768 L 512 752 Z M 513 753 L 513 767 L 527 767 L 527 753 L 513 753 Z " /><path fill="rgb(254,228,192)" stroke="rgb(254,228,192)" stroke-width="1" opacity="1" d="M 672 752 L 751.5 752 L 752 752.5 L 752 768 L 736 768 L 736 783.5 L 735.5 784 L 672 784 L 672 752 Z " /><path fill="rgb(254,228,192)" stroke="rgb(254,228,192)" stroke-width="1" opacity="1" d="M 400 768 L 416 768 L 416 784 L 400 784 L 400 768 Z M 401 769 L 401 783 L 415 783 L 415 769 L 401 769 Z " /><path fill="rgb(254,228,192)" stroke="rgb(254,228,192)" stroke-width="1" opacity="1" d="M 464 768 L 480 768 L 480 784 L 464 784 L 464 768 Z M 465 769 L 465 783 L 479 783 L 479 769 L 465 769 Z " /><path fill="rgb(254,228,192)" stroke="rgb(254,228,192)" stroke-width="1" opacity="1" d="M 576 784 L 655.5 784 L 656 784.5 L 656 800 L 688 800 L 688 816 L 672 816 L 672 832 L 656 832 L 656 848 L 640 848 L 640 864 L 624 864 L 624 880 L 592 880 L 592 896 L 576 896 L 576 912 L 560 912 L 560 928 L 528 928 L 528 944 L 512 944 L 512 960 L 480 960 L 480 976 L 464 976 L 464 944 L 480 944 L 480 912 L 496 912 L 496 880 L 512 880 L 512 848 L 528 848 L 528 832 L 544 832 L 544 800 L 576 800 L 576 784 Z " /><path fill="rgb(254,228,192)" stroke="rgb(254,228,192)" stroke-width="1" opacity="1" d="M 368 800 L 384 800 L 384 816 L 368 816 L 368 800 Z M 369 801 L 369 815 L 383 815 L 383 801 L 369 801 Z " /><path fill="rgb(254,228,192)" stroke="rgb(254,228,192)" stroke-width="1" opacity="1" d="M 400 800 L 416 800 L 416 816 L 400 816 L 400 800 Z M 401 801 L 401 815 L 415 815 L 415 801 L 401 801 Z " /><path fill="rgb(254,228,192)" stroke="rgb(254,228,192)" stroke-width="1" opacity="1" d="M 480 832 L 496 832 L 496 848 L 480 848 L 480 832 Z M 481 833 L 481 847 L 495 847 L 495 833 L 481 833 Z " /><path fill="rgb(254,228,192)" stroke="rgb(254,228,192)" stroke-width="1" opacity="1" d="M 432 848 L 448 848 L 448 864 L 432 864 L 432 848 Z M 433 849 L 433 863 L 447 863 L 447 849 L 433 849 Z " /><path fill="rgb(147,65,84)" stroke="rgb(147,65,84)" stroke-width="1" opacity="1" d="M 0 208 L 14.5 208 L 16 209.5 L 16 224 L 30.5 224 L 32 225.5 L 32 256 L 62.5 256 L 64 257.5 L 64 272 L 78.5 272 L 80 273.5 L 80 336 L 94.5 336 L 96 337.5 L 96 398.5 L 94.5 400 L 80.5 400 L 80 400.5 L 80 464 L 94.5 464 L 96 465.5 L 96 496 L 80.5 496 L 81 494.5 L 81 481.5 L 78.5 479 L 65 479 L 65 449.5 L 62.5 447 L 32 447 L 32 432 L 48 432 L 48 417 L 62.5 417 L 65 414.5 L 65 385 L 78.5 385 L 81 382.5 L 81 353.5 L 78.5 351 L 49.5 351 L 47 353.5 L 47 383 L 17.5 383 L 16.5 384 L 0 384 L 0 368 L 32 368 L 32 351.5 L 33 350.5 L 33 321 L 62.5 321 L 65 318.5 L 65 289.5 L 62.5 287 L 49 287 L 49 273.5 L 46.5 271 L 33.5 271 L 31 273.5 L 31 303 L 17.5 303 L 15 305.5 L 15 320 L 0 320 L 0 288 L 15.5 288 L 16 287.5 L 16 240 L 0 240 L 0 208 Z " /><path fill="rgb(147,65,84)" stroke="rgb(147,65,84)" stroke-width="1" opacity="1" d="M 1009.5 272 L 1024 272 L 1024 303 L 1009.5 303 L 1007 305.5 L 1007 366.5 L 1006.5 367 L 993.5 367 L 991 369.5 L 991 382.5 L 993.5 385 L 1008 385 L 1008 400 L 1024 400 L 1024 432 L 1009 432 L 1009 417.5 L 1006.5 415 L 993 415 L 993 401.5 L 990.5 399 L 977 399 L 977 385.5 L 974.5 383 L 961.5 383 L 959 385.5 L 959 414.5 L 961.5 417 L 975 417 L 976 464 L 1008 464 L 1008 496 L 1024 496 L 1024 511 L 993 511 L 993 481.5 L 990.5 479 L 961 479 L 961 449.5 L 958.5 447 L 945.5 447 L 943 449.5 L 943 463 L 929.5 463 L 927 465.5 L 927 478.5 L 928 479.5 L 928 528 L 944 528 L 944 544 L 976 544 L 976 560 L 1008 560 L 1008 592 L 993 592 L 993 577.5 L 990.5 575 L 945 575 L 945 561.5 L 942.5 559 L 929.5 559 L 927 561.5 L 927 591 L 913.5 591 L 911 593.5 L 911 607 L 897.5 607 L 895 609.5 L 895 623 L 881.5 623 L 879 625.5 L 879 639 L 865.5 639 L 863 641.5 L 863 671 L 849.5 671 L 847 673.5 L 847 687 L 833.5 687 L 831 689.5 L 831 703 L 817.5 703 L 815 705.5 L 815 719 L 801.5 719 L 799 721.5 L 799 735 L 785.5 735 L 783 737.5 L 783 751 L 769.5 751 L 767 753.5 L 767 767 L 753.5 767 L 751 769.5 L 751 783 L 737.5 783 L 735 785.5 L 735 799 L 721.5 799 L 719 801.5 L 719 815 L 705.5 815 L 703 817.5 L 703 831 L 689.5 831 L 687 833.5 L 687 847 L 673.5 847 L 671 849.5 L 671 863 L 641.5 863 L 639 865.5 L 639 879 L 625.5 879 L 623 881.5 L 623 895 L 609.5 895 L 607 897.5 L 607 911 L 593.5 911 L 591 913.5 L 591 927 L 577.5 927 L 575 929.5 L 575 943 L 545.5 943 L 543 945.5 L 543 959 L 513.5 959 L 511 961.5 L 511 975 L 497.5 975 L 495 977.5 L 495 991 L 465.5 991 L 463 993.5 L 463 1008 L 416 1008 L 416 1023.5 L 415.5 1024 L 320 1024 L 320 1008 L 399.5 1008 L 400 1007.5 L 400 992 L 447.5 992 L 448 991.5 L 448 976 L 480 976 L 480 960 L 512 960 L 512 944 L 528 944 L 528 928 L 560 928 L 560 912 L 576 912 L 576 896 L 592 896 L 592 880 L 624 880 L 624 864 L 640 864 L 640 848 L 656 848 L 656 832 L 672 832 L 672 816 L 688 816 L 688 800 L 704 800 L 704 784 L 736 784 L 736 768 L 752 768 L 752 752 L 766.5 752 L 768 750.5 L 768 736 L 784 736 L 784 720 L 800 720 L 800 704 L 816 704 L 816 672 L 832 672 L 832 656 L 848 656 L 848 624 L 880 624 L 880 592 L 896 592 L 896 576 L 912 576 L 912 432.5 L 912.5 432 L 944 432 L 944 369.5 L 945.5 368 L 976 368 L 976 321.5 L 977.5 320 L 992 320 L 992 305.5 L 993.5 304 L 1008 304 L 1008 273.5 L 1009.5 272 Z " /><path fill="rgb(147,65,84)" stroke="rgb(147,65,84)" stroke-width="1" opacity="1" d="M 0 432 L 16 432 L 16 448 L 31 448 L 31 463 L 17.5 463 L 15 465.5 L 15 590.5 L 16 591.5 L 16 608.5 L 15 609.5 L 15 622.5 L 16 623.5 L 16 672.5 L 15 673.5 L 15 718.5 L 17.5 721 L 31 721 L 31 814.5 L 33.5 817 L 46.5 817 L 47 817.5 L 47 878.5 L 49.5 881 L 63 881 L 63 926.5 L 65.5 929 L 78.5 929 L 79 929.5 L 79 990.5 L 81.5 993 L 95 993 L 96 1024 L 80 1024 L 80 1008 L 65.5 1008 L 64 1006.5 L 64 944 L 49.5 944 L 48 942.5 L 48 896.5 L 47.5 896 L 33.5 896 L 32 894.5 L 32 816 L 17.5 816 L 16 814.5 L 16 736.5 L 15.5 736 L 0.5 736 L 0 735.5 L 0 432 Z " /><path fill="rgb(147,65,84)" stroke="rgb(147,65,84)" stroke-width="1" opacity="1" d="M 33 465 L 47 465 L 47 478.5 L 48 479.5 L 48 496.5 L 47 497.5 L 47 510.5 L 48 511.5 L 48 575 L 33.5 575 L 33 574.5 L 33 465 Z " /><path fill="rgb(147,65,84)" stroke="rgb(147,65,84)" stroke-width="1" opacity="1" d="M 79.5 511 L 80.5 512 L 96 512 L 96 528 L 112 528 L 112 544 L 128 544 L 128 512 L 144 512 L 144 528 L 175.5 528 L 176 528.5 L 176 656 L 160 656 L 160 576.5 L 159.5 576 L 144 576 L 144 656 L 112 656 L 112 672 L 96 672 L 96 640 L 80 640 L 80 719.5 L 80.5 720 L 96 720 L 96 767.5 L 96.5 768 L 112 768 L 112 800 L 128 800 L 128 832 L 144 832 L 144 848 L 160 848 L 160 880 L 176 880 L 176 896 L 192 896 L 192 928 L 208 928 L 208 944 L 224 944 L 224 960 L 240 960 L 240 976 L 256 976 L 256 992 L 272 992 L 272 1008 L 288 1008 L 288 1024 L 256 1024 L 256 1008 L 241 1008 L 241 993.5 L 238.5 991 L 225 991 L 225 977.5 L 222.5 975 L 209 975 L 209 961.5 L 206.5 959 L 193 959 L 193 945.5 L 190.5 943 L 177 943 L 177 913.5 L 174.5 911 L 161 911 L 161 897.5 L 158.5 895 L 145.5 895 L 145 894.5 L 145 849.5 L 142.5 847 L 129 847 L 129 833.5 L 126.5 831 L 113 831 L 113 817.5 L 110.5 815 L 97 815 L 97 769.5 L 94.5 767 L 81 767 L 81 737.5 L 78.5 735 L 65 735 L 65 657.5 L 62.5 655 L 49.5 655 L 49 654.5 L 49 576 L 62.5 576 L 63.5 575 L 64 640 L 79.5 640 L 80 639.5 L 80 512.5 L 79.5 511 Z M 128 544 L 128 576 L 144 576 L 144 544 L 128 544 Z " /><path fill="rgb(147,65,84)" stroke="rgb(147,65,84)" stroke-width="1" opacity="1" d="M 608 528 L 624 528 L 624 544 L 608 544 L 608 607.5 L 607.5 608 L 592 608 L 592 544.5 L 592.5 544 L 608 544 L 608 528 Z " /><path fill="rgb(147,65,84)" stroke="rgb(147,65,84)" stroke-width="1" opacity="1" d="M 961 593 L 975 593 L 975 623 L 960 623 L 960 607.5 L 961 606.5 L 961 593 Z " /><path fill="rgb(147,65,84)" stroke="rgb(147,65,84)" stroke-width="1" opacity="1" d="M 1008 608 L 1024 608 L 1024 640 L 1008 640 L 1008 686.5 L 1007.5 687 L 993.5 687 L 991 689.5 L 991 719 L 977.5 719 L 975 721.5 L 975 751 L 961.5 751 L 959 753.5 L 959 783 L 945.5 783 L 943 785.5 L 943 830.5 L 942.5 831 L 929.5 831 L 927 833.5 L 927 895 L 913.5 895 L 911 897.5 L 911 958.5 L 910.5 959 L 897.5 959 L 895 961.5 L 895 975 L 849 975 L 849 928 L 864 928 L 864 911.5 L 865 910.5 L 865 896 L 880 896 L 880 879.5 L 881 878.5 L 881 864 L 896 864 L 896 849.5 L 897.5 848 L 912 848 L 912 816 L 928 816 L 928 799.5 L 929 798.5 L 929 785.5 L 928 784.5 L 928 769 L 942.5 769 L 945 766.5 L 944 737.5 L 945.5 736 L 960 736 L 960 705.5 L 961.5 704 L 976 704 L 976 673.5 L 977.5 672 L 992 672 L 993 640 L 1008 640 L 1008 608 Z " /><path fill="rgb(147,65,84)" stroke="rgb(147,65,84)" stroke-width="1" opacity="1" d="M 945 624 L 958.5 624 L 959 624.5 L 959 671 L 945.5 671 L 943 673.5 L 943 687 L 929.5 687 L 927 689.5 L 927 719 L 913.5 719 L 911 721.5 L 911 735 L 897.5 735 L 895 737.5 L 895 751 L 881.5 751 L 879 753.5 L 879 783 L 865.5 783 L 863 785.5 L 863 815 L 849.5 815 L 847 817.5 L 847 831 L 833.5 831 L 831 833.5 L 831 847 L 817.5 847 L 815 849.5 L 815 879 L 785 879 L 785 865.5 L 782.5 863 L 768 863 L 768 832 L 784 832 L 784 817.5 L 785.5 816 L 800 816 L 800 801.5 L 801.5 800 L 816 800 L 816 785.5 L 817.5 784 L 832 784 L 832 768 L 848 768 L 848 752 L 864 752 L 864 737 L 878.5 737 L 881 734.5 L 881 720 L 896 720 L 896 705.5 L 897.5 704 L 912 704 L 912 673.5 L 913.5 672 L 928 672 L 928 657.5 L 929.5 656 L 944 656 L 945 624 Z " /><path fill="rgb(147,65,84)" stroke="rgb(147,65,84)" stroke-width="1" opacity="1" d="M 208 656 L 240 656 L 240 672 L 208 672 L 208 656 Z " /><path fill="rgb(147,65,84)" stroke="rgb(147,65,84)" stroke-width="1" opacity="1" d="M 208 688 L 240 688 L 240 767.5 L 240.5 768 L 254.5 768 L 256 769.5 L 256 784 L 270.5 784 L 272 785.5 L 272 800 L 304 800 L 304 785.5 L 305.5 784 L 320 784 L 320 769.5 L 321.5 768 L 336 768 L 336 736 L 352 736 L 352 799.5 L 351.5 800 L 336 800 L 336 816 L 352 816 L 352 848 L 368 848 L 368 879.5 L 368.5 880 L 384 880 L 384 912 L 400 912 L 400 928 L 416 928 L 416 960 L 368 960 L 368 944 L 352 944 L 352 928 L 336 928 L 336 912 L 320 912 L 320 880 L 304 880 L 304 864 L 288 864 L 288 832 L 256 832 L 256 816 L 240 816 L 240 800 L 224 800 L 224 784 L 208 784 L 208 688 Z " /><path fill="rgb(147,65,84)" stroke="rgb(147,65,84)" stroke-width="1" opacity="1" d="M 704 720 L 752 720 L 752 736 L 704 736 L 704 720 Z " /><path fill="rgb(147,65,84)" stroke="rgb(147,65,84)" stroke-width="1" opacity="1" d="M 1008 832 L 1023.5 832 L 1024 832.5 L 1024 975 L 1009.5 975 L 1007 977.5 L 1007 990.5 L 1006.5 991 L 961 991 L 961 945.5 L 961.5 945 L 974.5 945 L 977 942.5 L 977 913 L 990.5 913 L 993 910.5 L 992 880 L 1008 880 L 1008 832 Z " /></svg>